<?xml version="1.0" encoding="UTF-8"?>
<svg id="Capa_1" data-name="Capa 1" xmlns="http://www.w3.org/2000/svg" version="1.1" viewBox="0 0 2689.3 519.6">
  <defs>
    <style>
      .cls-1, .cls-2, .cls-3, .cls-4, .cls-5, .cls-6, .cls-7 {
        stroke-width: 0px;
      }

      .cls-1, .cls-6 {
        fill-rule: evenodd;
      }

      .cls-1, .cls-7 {
        fill: #fff;
      }

      .cls-2, .cls-6 {
        fill: #00197e;
      }

      .cls-3 {
        fill: #c9d4d8;
      }

      .cls-8 {
        isolation: isolate;
      }

      .cls-4 {
        fill: #011d75;
      }

      .cls-5 {
        fill: #f04a0c;
      }
    </style>
  </defs>
  <rect class="cls-7" x="-103.4" y="-1125.5" width="2913.9" height="832.9"/>
  <path class="cls-3" d="M2341.9-1201.9"/>
  <g>
    <g class="cls-8">
      <path class="cls-2" d="M700.1-675.7c5.1-19.1,13.8-37.1,25.9-53.7,12.2-16.7,27.1-31.1,44.7-43.3,17.6-12.2,37.7-21.8,60.1-28.7,22.4-6.9,46.5-10.4,72.3-10.4s60.6,4.5,86.5,13.4l-16.5,27.2c-7.3,12-21.2,18.2-35,15.7l-6.9-1.3c-10.8-2-22.7-3-35.6-3-30.5,0-55.6,7.4-75.4,22-19.8,14.7-33.3,35.4-40.4,62.2-6.9,25.8-4.8,46.2,6.2,61.2,11,15,34.3,22.5,69.9,22.5s26.6-1,40-3l11.4-1.7c12.4-1.8,23.4,8.1,22.8,20.6l-1.1,23.2c-9.5,3.3-23.2,6.3-41.3,8.9-18.1,2.6-36.3,4-54.8,4-28.7,0-52.8-3.4-72.2-10.2-19.4-6.8-34.5-16.2-45.2-28.2-10.7-12-17.3-26.4-19.7-43.1-2.4-16.7-1-34.8,4.2-54.2Z"/>
      <path class="cls-2" d="M1294.1-676.2c-5.5,20.5-14.3,39.1-26.5,56-12.2,16.8-27,31.2-44.3,43.1-17.3,11.9-36.9,21.1-58.6,27.7-21.7,6.6-44.6,9.9-68.6,9.9s-45-3.3-63-9.9c-18-6.6-32.4-15.9-43.4-27.7-11-11.9-18.2-26.3-21.6-43.1-3.4-16.8-2.4-35.5,3.1-56,5.5-20.5,14.4-39,26.8-55.7,12.4-16.7,27.4-31,44.9-42.9,17.5-11.9,37-21.1,58.5-27.5,21.4-6.4,44-9.7,67.6-9.7s44.5,3.2,62.7,9.7c18.2,6.4,32.8,15.6,43.8,27.5,11,11.9,18.2,26.2,21.7,42.9,3.5,16.7,2.5,35.3-3,55.7ZM1214.3-676.2c6.9-25.8,5.1-46.1-5.2-61.2-10.4-15-28.4-22.5-54.1-22.5s-47.8,7.5-66.2,22.5c-18.4,15-31,35.4-37.9,61.2-7,26.1-5.3,46.7,5,61.9,10.3,15.2,28.3,22.8,54.1,22.8s47.8-7.6,66.3-22.8c18.4-15.2,31.1-35.8,38.1-61.9Z"/>
      <path class="cls-4" d="M1542.3-682.6c7.2-27.1,8.1-46.6,2.5-58.7-5.6-12.1-20.4-18.1-44.4-18.1s-18.1.5-28.7,1.5c-10.6,1-18.5,1.8-23.8,2.5l-55.9,209h-77.9l67-250.7c15.9-3.3,36.4-6.4,61.4-9.4,25-3,51.1-4.5,78.1-4.5s41.5,2.3,55.1,6.9c13.6,4.6,24.3,10.7,32.1,18.3,5.4-2.6,12.2-5.4,20.3-8.4,8.1-3,17-5.7,26.6-8.2,9.7-2.5,19.8-4.5,30.3-6.2,10.5-1.6,20.9-2.5,31.2-2.5,26.2,0,46.9,2.9,62.3,8.7,15.4,5.8,26.5,13.9,33.4,24.3,6.9,10.4,10.2,23,9.9,37.6-.3,14.7-2.8,30.8-7.4,48.3l-34.2,128c-2.8,10.4-12.2,17.6-23,17.6h-59.6l36.4-136.2c7.2-27.1,8.2-46.6,2.8-58.7-5.4-12.1-20.3-18.1-44.7-18.1s-24.7,1.6-36.6,4.7c-12,3.1-21.2,6.2-27.5,9.2,1.2,8.3,1.2,17,0,26.3-1.2,9.3-3.2,19.2-6,29.7l-33.5,125.5c-2.8,10.4-12.2,17.6-23,17.6h-59.6l36.4-136.2Z"/>
    </g>
    <g class="cls-8">
      <path class="cls-5" d="M2435.2-676.2c-5.5,20.5-14.3,39.1-26.5,56-12.2,16.8-27,31.2-44.3,43.1-17.3,11.9-36.9,21.1-58.6,27.7-21.7,6.6-44.6,9.9-68.6,9.9s-45-3.3-63-9.9c-18-6.6-32.4-15.9-43.4-27.7-11-11.9-18.2-26.3-21.6-43.1-3.4-16.8-2.4-35.5,3.1-56,5.5-20.5,14.4-39,26.8-55.7,12.4-16.7,27.4-31,44.9-42.9,17.5-11.9,37-21.1,58.5-27.5,21.4-6.4,44-9.7,67.6-9.7s44.5,3.2,62.7,9.7c18.2,6.4,32.8,15.6,43.8,27.5,11,11.9,18.2,26.2,21.7,42.9,3.5,16.7,2.5,35.3-3,55.7ZM2355.4-676.2c6.9-25.8,5.1-46.1-5.2-61.2-10.4-15-28.4-22.5-54.1-22.5s-47.8,7.5-66.2,22.5c-18.4,15-31,35.4-37.9,61.2-7,26.1-5.3,46.7,5,61.9,10.3,15.2,28.3,22.8,54.1,22.8s47.8-7.6,66.3-22.8c18.4-15.2,31.1-35.8,38.1-61.9Z"/>
      <path class="cls-5" d="M2709-765c-4.2,7.8-12.9,11.9-21.5,10.3-3.3-.6-7-1.3-11-2-10.9-1.8-23.8-2.7-38.8-2.7s-17.9.7-27.9,2c-10,1.3-17.1,2.5-21.2,3.5l-51.5,192.8c-2.3,8.7-10.2,14.8-19.2,14.8h-62.6l65.9-246.7c16.2-4.3,36-8.3,59.5-12.1,23.5-3.8,49-5.7,76.5-5.7s11.1.2,17.8.7c6.7.5,13.4,1.2,20.1,2,6.6.8,13,1.8,19.2,3,6.1,1.2,11,2.2,14.6,3.2l-19.8,37Z"/>
    </g>
    <path class="cls-5" d="M1990.5-755.5h104.9c8.7,0,16.4-5.9,18.7-14.3l9.5-35.7h-119.7l20.9-78.3-80.5,9.9-18.2,68.1h-40.8l-13.4,50h40.8l-28.4,106.3c-4.6,17.2-6.7,32.4-6.5,45.8.3,13.4,3.9,24.8,10.8,34.2,6.9,9.4,17.8,16.6,32.5,21.5,14.8,5,34.1,7.4,58.2,7.4s37.3-1.6,52.7-4.7c8.3-1.7,15.8-3.4,22.5-5,9-2.2,15.4-10.3,15.3-19.6v-31.2c-.1,0-27.9,5.6-27.9,5.6-11.6,2.3-24.4,3.5-38.6,3.5-20.6,0-34-4.5-40.2-13.4-6.2-8.9-6.5-23.8-1-44.6l28.2-105.5Z"/>
    <path id="path4155" class="cls-6" d="M508.8-957.2c28.5,18.6,53.7,43.3,73.5,74,81.7,127.2,35.6,303.2-104.7,393.6-139.8,89.9-319.1,60.3-400.8-66.3-19.7-30.2-31.2-63-37.3-97.6h0c22.8-14.9,53.4-3.9,62,22,5.1,15.5,12.3,30.5,21.4,44.9,66.9,103.6,213.3,127.7,327.3,54.3,113.5-73.5,151.9-216.6,85.5-320.2-9.3-14.1-20.2-26.9-32.2-38.1-20.3-18.8-17.8-51.5,5.4-66.7h0"/>
    <g class="cls-8">
      <path class="cls-5" d="M538.8-779.8l-7.1,26.5c-2.5,9.2-10.8,15.6-20.3,15.6h-69.7l-43.1,161.3c-2.5,9.3-10.9,15.7-20.5,15.7h-47.8l47.3-177h-85.8l7.1-26.5c2.5-9.2,10.8-15.6,20.3-15.6h219.6Z"/>
    </g>
    <path class="cls-5" d="M297.4-660.7c0,.1,0,.3-.2.3-10,4-21.1,7.2-33.3,9.6-12.3,2.4-27.3,3.6-45,3.6s-29.2-2.1-41.8-6.2c-12.7-4.1-23.5-10-32.4-17.7-9-7.7-15.9-17-20.8-28-4.9-11-7.4-23.4-7.4-37.1s3.4-31.4,10.1-47c6.8-15.6,16.7-29.4,29.9-41.7,13.1-12.2,29.2-22.2,48.3-29.8,19-7.7,41-11.5,65.8-11.5s23.4,1.1,34.8,3.3c11.4,2.2,23.4,6.2,35.9,11.8l-4.1,7.4c-8.8,15.6-26.6,23.7-44.1,20.2h0c-8.1-1.6-16.8-2.4-26.2-2.4-14,0-26.6,2.3-37.8,7-11.2,4.6-20.8,11-28.8,18.9-8,8-14.1,17.2-18.2,27.7-4.2,10.5-6.3,21.6-6.3,33.3,0,17.8,4.7,30.7,14.2,38.8,9.5,8.1,23,12.1,40.7,12.1s22.7-1,32.6-3l6.9-1.4c11.6-2.4,22.9,5.4,24.8,17.1l2.4,14.6Z"/>
  </g>
  <g>
    <g class="cls-8">
      <path class="cls-7" d="M660.5,281.5c5.1-19.1,13.8-37.1,25.9-53.7,12.2-16.7,27.1-31.1,44.7-43.3,17.6-12.2,37.7-21.8,60.1-28.7,22.4-6.9,46.5-10.4,72.3-10.4s60.6,4.5,86.5,13.4l-16.5,27.2c-7.3,12-21.2,18.2-35,15.7l-6.9-1.3c-10.8-2-22.7-3-35.6-3-30.5,0-55.6,7.4-75.4,22-19.8,14.7-33.3,35.4-40.4,62.2-6.9,25.8-4.8,46.2,6.2,61.2,11,15,34.3,22.5,69.9,22.5s26.6-1,40-3l11.4-1.7c12.4-1.8,23.4,8.1,22.8,20.6l-1.1,23.2c-9.5,3.3-23.2,6.3-41.3,8.9-18.1,2.6-36.3,4-54.8,4-28.7,0-52.8-3.4-72.2-10.2-19.4-6.8-34.5-16.2-45.2-28.2-10.7-12-17.3-26.4-19.7-43.1-2.4-16.7-1-34.8,4.2-54.2Z"/>
      <path class="cls-7" d="M1254.6,281c-5.5,20.5-14.3,39.1-26.5,56-12.2,16.8-27,31.2-44.3,43.1-17.3,11.9-36.9,21.1-58.6,27.7-21.7,6.6-44.6,9.9-68.6,9.9s-45-3.3-63-9.9c-18-6.6-32.4-15.9-43.4-27.7-11-11.9-18.2-26.3-21.6-43.1-3.4-16.8-2.4-35.5,3.1-56,5.5-20.5,14.4-39,26.8-55.7,12.4-16.7,27.4-31,44.9-42.9,17.5-11.9,37-21.1,58.5-27.5,21.4-6.4,44-9.7,67.6-9.7s44.5,3.2,62.7,9.7c18.2,6.4,32.8,15.6,43.8,27.5,11,11.9,18.2,26.2,21.7,42.9,3.5,16.7,2.5,35.3-3,55.7ZM1174.8,281c6.9-25.8,5.1-46.1-5.2-61.2-10.4-15-28.4-22.5-54.1-22.5s-47.8,7.5-66.2,22.5c-18.4,15-31,35.4-37.9,61.2-7,26.1-5.3,46.7,5,61.9,10.3,15.2,28.3,22.8,54.1,22.8s47.8-7.6,66.3-22.8c18.4-15.2,31.1-35.8,38.1-61.9Z"/>
      <path class="cls-7" d="M1502.7,274.5c7.2-27.1,8.1-46.6,2.5-58.7-5.6-12.1-20.4-18.1-44.4-18.1s-18.1.5-28.7,1.5c-10.6,1-18.5,1.8-23.8,2.5l-55.9,209h-77.9l67-250.7c15.9-3.3,36.4-6.4,61.4-9.4,25-3,51.1-4.5,78.1-4.5s41.5,2.3,55.1,6.9c13.6,4.6,24.3,10.7,32.1,18.3,5.4-2.6,12.2-5.4,20.3-8.4,8.1-3,17-5.7,26.6-8.2,9.7-2.5,19.8-4.5,30.3-6.2,10.5-1.6,20.9-2.5,31.2-2.5,26.2,0,46.9,2.9,62.3,8.7,15.4,5.8,26.5,13.9,33.4,24.3,6.9,10.4,10.2,23,9.9,37.6-.3,14.7-2.8,30.8-7.4,48.3l-34.2,128c-2.8,10.4-12.2,17.6-23,17.6h-59.6l36.4-136.2c7.2-27.1,8.2-46.6,2.8-58.7-5.4-12.1-20.3-18.1-44.7-18.1s-24.7,1.6-36.6,4.7c-12,3.1-21.2,6.2-27.5,9.2,1.2,8.3,1.2,17,0,26.3-1.2,9.3-3.2,19.2-6,29.7l-33.5,125.5c-2.8,10.4-12.2,17.6-23,17.6h-59.6l36.4-136.2Z"/>
    </g>
    <g class="cls-8">
      <path class="cls-7" d="M2395.7,281c-5.5,20.5-14.3,39.1-26.5,56-12.2,16.8-27,31.2-44.3,43.1-17.3,11.9-36.9,21.1-58.6,27.7-21.7,6.6-44.6,9.9-68.6,9.9s-45-3.3-63-9.9c-18-6.6-32.4-15.9-43.4-27.7-11-11.9-18.2-26.3-21.6-43.1-3.4-16.8-2.4-35.5,3.1-56,5.5-20.5,14.4-39,26.8-55.7,12.4-16.7,27.4-31,44.9-42.9,17.5-11.9,37-21.1,58.5-27.5,21.4-6.4,44-9.7,67.6-9.7s44.5,3.2,62.7,9.7c18.2,6.4,32.8,15.6,43.8,27.5,11,11.9,18.2,26.2,21.7,42.9,3.5,16.7,2.5,35.3-3,55.7ZM2315.9,281c6.9-25.8,5.1-46.1-5.2-61.2-10.4-15-28.4-22.5-54.1-22.5s-47.8,7.5-66.2,22.5c-18.4,15-31,35.4-37.9,61.2-7,26.1-5.3,46.7,5,61.9,10.3,15.2,28.3,22.8,54.1,22.8s47.8-7.6,66.3-22.8c18.4-15.2,31.1-35.8,38.1-61.9Z"/>
      <path class="cls-7" d="M2669.4,192.2c-4.2,7.8-12.9,11.9-21.5,10.3-3.3-.6-7-1.3-11-2-10.9-1.8-23.8-2.7-38.8-2.7s-17.9.7-27.9,2c-10,1.3-17.1,2.5-21.2,3.5l-51.5,192.8c-2.3,8.7-10.2,14.8-19.2,14.8h-62.6l65.9-246.7c16.2-4.3,36-8.3,59.5-12.1,23.5-3.8,49-5.7,76.5-5.7s11.1.2,17.8.7c6.7.5,13.4,1.2,20.1,2,6.6.8,13,1.8,19.2,3,6.1,1.2,11,2.2,14.6,3.2l-19.8,37Z"/>
    </g>
    <path class="cls-7" d="M1951,201.7h104.9c8.7,0,16.4-5.9,18.7-14.3l9.5-35.7h-119.7l20.9-78.3-80.5,9.9-18.2,68.1h-40.8l-13.4,50h40.8l-28.4,106.3c-4.6,17.2-6.7,32.4-6.5,45.8.3,13.4,3.9,24.8,10.8,34.2,6.9,9.4,17.8,16.6,32.5,21.5,14.8,5,34.1,7.4,58.2,7.4s37.3-1.6,52.7-4.7c8.3-1.7,15.8-3.4,22.5-5,9-2.2,15.4-10.3,15.3-19.6v-31.2c-.1,0-27.9,5.6-27.9,5.6-11.6,2.3-24.4,3.5-38.6,3.5-20.6,0-34-4.5-40.2-13.4-6.2-8.9-6.5-23.8-1-44.6l28.2-105.5Z"/>
    <path id="path4155-2" data-name="path4155" class="cls-1" d="M469.3,0c28.5,18.6,53.7,43.3,73.5,74,81.7,127.2,35.6,303.2-104.7,393.6-139.8,89.9-319.1,60.3-400.8-66.3-19.7-30.2-31.2-63-37.3-97.6h0c22.8-14.9,53.4-3.9,62,22,5.1,15.5,12.3,30.5,21.4,44.9,66.9,103.6,213.3,127.7,327.3,54.3,113.5-73.5,151.9-216.6,85.5-320.2-9.3-14.1-20.2-26.9-32.2-38.1C443.7,47.8,446.1,15.1,469.3,0h0"/>
    <g class="cls-8">
      <path class="cls-7" d="M499.2,177.4l-7.1,26.5c-2.5,9.2-10.8,15.6-20.3,15.6h-69.7l-43.1,161.3c-2.5,9.3-10.9,15.7-20.5,15.7h-47.8l47.3-177h-85.8l7.1-26.5c2.5-9.2,10.8-15.6,20.3-15.6h219.6Z"/>
    </g>
    <path class="cls-7" d="M257.9,296.5c0,.1,0,.3-.2.3-10,4-21.1,7.2-33.3,9.6-12.3,2.4-27.3,3.6-45,3.6s-29.2-2.1-41.8-6.2c-12.7-4.1-23.5-10-32.4-17.7-9-7.7-15.9-17-20.8-28-4.9-11-7.4-23.4-7.4-37.1s3.4-31.4,10.1-47c6.8-15.6,16.7-29.4,29.9-41.7,13.1-12.2,29.2-22.2,48.3-29.8,19-7.7,41-11.5,65.8-11.5s23.4,1.1,34.8,3.3c11.4,2.2,23.4,6.2,35.9,11.8l-4.1,7.4c-8.8,15.6-26.6,23.7-44.1,20.2h0c-8.1-1.6-16.8-2.4-26.2-2.4-14,0-26.6,2.3-37.8,7-11.2,4.6-20.8,11-28.8,18.9-8,8-14.1,17.2-18.2,27.7-4.2,10.5-6.3,21.6-6.3,33.3,0,17.8,4.7,30.7,14.2,38.8,9.5,8.1,23,12.1,40.7,12.1s22.7-1,32.6-3l6.9-1.4c11.6-2.4,22.9,5.4,24.8,17.1l2.4,14.6Z"/>
  </g>
</svg>