<?xml version="1.0" encoding="UTF-8" standalone="no"?>
<svg
   xmlns:dc="http://purl.org/dc/elements/1.1/"
   xmlns:cc="http://creativecommons.org/ns#"
   xmlns:rdf="http://www.w3.org/1999/02/22-rdf-syntax-ns#"
   xmlns:svg="http://www.w3.org/2000/svg"
   xmlns="http://www.w3.org/2000/svg"
   xmlns:sodipodi="http://sodipodi.sourceforge.net/DTD/sodipodi-0.dtd"
   xmlns:inkscape="http://www.inkscape.org/namespaces/inkscape"
   width="143.99345mm"
   height="40.155296mm"
   viewBox="0 0 143.99345 40.155296"
   version="1.1"
   id="svg4752"
   inkscape:version="1.0 (4035a4f, 2020-05-01)"
   sodipodi:docname="logo_comtor_pixel_perfect.svg">
  <defs
     id="defs4746" />
  <sodipodi:namedview
     inkscape:snap-grids="false"
     inkscape:snap-nodes="false"
     inkscape:object-nodes="false"
     inkscape:guide-bbox="true"
     showguides="true"
     id="base"
     pagecolor="#ffffff"
     bordercolor="#666666"
     borderopacity="1.0"
     inkscape:pageopacity="0.0"
     inkscape:pageshadow="2"
     inkscape:zoom="0.59634513"
     inkscape:cx="621.53481"
     inkscape:cy="90.916605"
     inkscape:document-units="mm"
     inkscape:current-layer="layer1"
     inkscape:document-rotation="0"
     showgrid="false"
     lock-margins="true"
     fit-margin-top="5"
     fit-margin-left="5"
     fit-margin-right="5"
     fit-margin-bottom="5"
     inkscape:window-width="1920"
     inkscape:window-height="1016"
     inkscape:window-x="0"
     inkscape:window-y="27"
     inkscape:window-maximized="1">
    <sodipodi:guide
       inkscape:color="rgb(0,0,255)"
       inkscape:locked="false"
       inkscape:label=""
       id="guide8061"
       orientation="0,1"
       position="16.194131,40.155295" />
    <sodipodi:guide
       inkscape:color="rgb(0,0,255)"
       inkscape:locked="false"
       inkscape:label=""
       id="guide8063"
       orientation="-1,0"
       position="0,-4.0148644" />
    <sodipodi:guide
       inkscape:color="rgb(0,0,255)"
       inkscape:locked="false"
       inkscape:label=""
       id="guide8065"
       orientation="-1,0"
       position="3.9999999,-6.9851556" />
    <sodipodi:guide
       id="guide8067"
       orientation="-1,0"
       position="3.9999999,-6.9851556" />
    <sodipodi:guide
       inkscape:color="rgb(0,0,255)"
       inkscape:locked="false"
       inkscape:label=""
       id="guide8069"
       orientation="-1,0"
       position="7.9999998,-12.198335" />
    <sodipodi:guide
       inkscape:color="rgb(0,0,255)"
       inkscape:locked="false"
       inkscape:label=""
       id="guide8071"
       orientation="-1,0"
       position="12,-21.293669" />
    <sodipodi:guide
       inkscape:color="rgb(0,0,255)"
       inkscape:locked="false"
       inkscape:label=""
       id="guide8073"
       orientation="-1,0"
       position="16,-18.409783" />
    <sodipodi:guide
       inkscape:color="rgb(0,0,255)"
       inkscape:locked="false"
       inkscape:label=""
       id="guide8075"
       orientation="-1,0"
       position="19.999999,-16.967839" />
    <sodipodi:guide
       inkscape:color="rgb(0,0,255)"
       inkscape:locked="false"
       inkscape:label=""
       id="guide8077"
       orientation="-1,0"
       position="23.999999,-11.200067" />
    <sodipodi:guide
       inkscape:color="rgb(0,0,255)"
       inkscape:locked="false"
       inkscape:label=""
       id="guide8079"
       orientation="-1,0"
       position="27.999999,-12.087416" />
    <sodipodi:guide
       inkscape:color="rgb(0,0,255)"
       inkscape:locked="false"
       inkscape:label=""
       id="guide8081"
       orientation="-1,0"
       position="31.999999,-11.421904" />
    <sodipodi:guide
       inkscape:color="rgb(0,0,255)"
       inkscape:locked="false"
       inkscape:label=""
       id="guide8083"
       orientation="-1,0"
       position="35.999999,-22.181019" />
    <sodipodi:guide
       inkscape:color="rgb(0,0,255)"
       inkscape:locked="false"
       inkscape:label=""
       id="guide8085"
       orientation="-1,0"
       position="39.999999,-18.853457" />
    <sodipodi:guide
       inkscape:color="rgb(0,0,255)"
       inkscape:locked="false"
       inkscape:label=""
       id="guide8087"
       orientation="0,1"
       position="23.313725,34.155295" />
    <sodipodi:guide
       inkscape:color="rgb(0,0,255)"
       inkscape:locked="false"
       inkscape:label=""
       id="guide8089"
       orientation="0,1"
       position="-3.9745805,10.155296" />
    <sodipodi:guide
       inkscape:color="rgb(0,0,255)"
       inkscape:locked="false"
       inkscape:label=""
       id="guide8091"
       orientation="-1,0"
       position="43.999999,-19.629888" />
    <sodipodi:guide
       inkscape:color="rgb(0,0,255)"
       inkscape:locked="false"
       inkscape:label=""
       id="guide8093"
       orientation="0,1"
       position="69.767866,38.155295" />
    <sodipodi:guide
       inkscape:color="rgb(0,0,255)"
       inkscape:locked="false"
       inkscape:label=""
       id="guide8095"
       orientation="0,1"
       position="41.785197,15.155296" />
    <sodipodi:guide
       inkscape:color="rgb(0,0,255)"
       inkscape:locked="false"
       inkscape:label=""
       id="guide8097"
       orientation="0,1"
       position="41.594515,13.155296" />
    <sodipodi:guide
       id="guide8099"
       orientation="1,0"
       position="139.0366,13.155296" />
    <sodipodi:guide
       inkscape:color="rgb(0,0,255)"
       inkscape:locked="false"
       inkscape:label=""
       id="guide8811"
       orientation="0,1"
       position="121.34506,8.1552961" />
    <sodipodi:guide
       inkscape:color="rgb(0,0,255)"
       inkscape:locked="false"
       inkscape:label=""
       id="guide8813"
       orientation="0,1"
       position="30.225348,28.155295" />
    <sodipodi:guide
       id="guide8815"
       orientation="0,-1"
       position="48.194178,34.155295" />
    <sodipodi:guide
       id="guide8817"
       orientation="0,-1"
       position="48.582393,34.155295" />
    <sodipodi:guide
       inkscape:color="rgb(0,0,255)"
       inkscape:locked="false"
       inkscape:label=""
       id="guide8819"
       orientation="0,1"
       position="16,33.155295" />
    <sodipodi:guide
       inkscape:color="rgb(0,0,255)"
       inkscape:locked="false"
       inkscape:label=""
       id="guide8821"
       orientation="-1,0"
       position="29.999999,23.625884" />
    <sodipodi:guide
       inkscape:color="rgb(0,0,255)"
       inkscape:locked="false"
       inkscape:label=""
       id="guide8823"
       orientation="-1,0"
       position="16.999999,24.253335" />
    <sodipodi:guide
       inkscape:color="rgb(0,0,255)"
       inkscape:locked="false"
       inkscape:label=""
       id="guide8825"
       orientation="0,1"
       position="31.549018,25.155296" />
    <sodipodi:guide
       inkscape:color="rgb(0,0,255)"
       inkscape:locked="false"
       inkscape:label=""
       id="guide8827"
       orientation="-1,0"
       position="6.9999998,16.508237" />
    <sodipodi:guide
       inkscape:color="rgb(0,0,255)"
       inkscape:locked="false"
       inkscape:label=""
       id="guide8829"
       orientation="0,1"
       position="50.939626,21.155296" />
    <sodipodi:guide
       id="guide8831"
       orientation="0,-1"
       position="-21.019607,25.155296" />
    <sodipodi:guide
       inkscape:color="rgb(0,0,255)"
       inkscape:locked="false"
       inkscape:label=""
       id="guide8833"
       orientation="0,1"
       position="-11.098039,19.155296" />
    <sodipodi:guide
       inkscape:color="rgb(0,0,255)"
       inkscape:locked="false"
       inkscape:label=""
       id="guide8835"
       orientation="0,1"
       position="67.882248,23.155296" />
    <sodipodi:guide
       inkscape:color="rgb(0,0,255)"
       inkscape:locked="false"
       inkscape:label=""
       id="guide8837"
       orientation="0,1"
       position="57.289512,20.155296" />
  </sodipodi:namedview>
  <metadata
     id="metadata4749">
    <rdf:RDF>
      <cc:Work
         rdf:about="">
        <dc:format>image/svg+xml</dc:format>
        <dc:type
           rdf:resource="http://purl.org/dc/dcmitype/StillImage" />
        <dc:title></dc:title>
      </cc:Work>
    </rdf:RDF>
  </metadata>
  <g
     inkscape:label="Capa 1"
     inkscape:groupmode="layer"
     id="layer1"
     transform="translate(-24.727465,-39.646832)">
    <path
       d="m 963.35303,-692.84347 c -7.14408,0 -12.6643,5.423 -12.6643,12.43719 0,6.91676 5.58552,12.40505 12.63218,12.40505 6.98171,0 12.37181,-5.423 12.37181,-12.43719 0,-6.85183 -5.48784,-12.40505 -12.33969,-12.40505 z m 38.81757,0 c -3.86427,0 -6.98165,3.02002 -6.98165,6.81937 0,3.02 1.78586,5.32593 5.00065,6.52742 3.2149,1.20152 3.4101,1.29878 4.157,1.85082 0.7144,0.58452 1.1041,1.4286 1.1041,2.43526 0,1.72107 -1.3315,2.92274 -3.2474,2.92274 -1.9808,0 -3.05253,-0.97421 -3.24738,-2.98755 H 994.312 c 0.16237,1.88344 0.58468,3.08498 1.55888,4.35143 1.4288,1.85096 3.79952,2.92275 6.33242,2.92275 4.3189,0 7.6636,-3.34492 7.6636,-7.69631 0,-1.98086 -0.7469,-3.70177 -2.1433,-5.0007 -0.9417,-0.87677 -1.7209,-1.29921 -4.0589,-2.17598 -2.2731,-0.8443 -2.3382,-0.87654 -2.663,-1.07138 -0.8767,-0.55205 -1.33115,-1.29922 -1.33115,-2.176 0,-1.42881 1.00665,-2.43525 2.46795,-2.43525 1.4938,0 2.4028,0.9091 2.5328,2.53275 h 4.6112 c -0.097,-1.81849 -0.5198,-3.05243 -1.4941,-4.25394 -1.2989,-1.62365 -3.3771,-2.56543 -5.6178,-2.56543 z m -87.2874,0.42213 v 23.99797 h 4.44839 v -9.12499 h 1.42924 c 3.40967,0 4.96835,-0.2601 6.29974,-1.07192 1.9484,-1.20151 3.14988,-3.63704 3.14988,-6.39725 0,-2.76021 -1.1691,-5.0333 -3.24737,-6.29975 -1.36387,-0.81183 -2.95508,-1.10406 -6.13744,-1.10406 z m 18.40577,0 v 23.99797 h 4.44839 v -9.12499 h 1.42924 c 0.31529,0 0.59909,-0.005 0.88401,-0.01 l 6.57262,9.1348 h 5.48765 l -7.45992,-9.78405 c 0.28812,-0.11829 0.55642,-0.25497 0.81538,-0.41287 1.94837,-1.20151 3.14988,-3.63703 3.14988,-6.39724 0,-2.76022 -1.1691,-5.0333 -3.24738,-6.29975 -1.36386,-0.81183 -2.95506,-1.10407 -6.13743,-1.10407 z m 45.90605,0 v 23.99797 H 992.087 v -4.25392 h -8.44306 v -5.58568 h 8.08574 v -4.25394 h -8.08574 v -5.65049 h 8.44306 v -4.25394 z m -15.90679,3.86449 c 4.4488,0 7.92342,3.57206 7.92342,8.18324 0,4.61119 -3.37718,8.08575 -7.92342,8.08575 -4.54625,0 -8.11844,-3.57219 -8.11844,-8.11842 0,-4.64365 3.50727,-8.15057 8.11844,-8.15057 z m -43.95664,0.38945 h 1.49405 c 1.46129,0 2.11084,0.0653 2.82525,0.22767 1.29893,0.3572 2.07796,1.49379 2.07796,2.98756 0,1.16904 -0.51912,2.078 -1.46084,2.59757 -0.68193,0.3572 -1.91629,0.5523 -3.63736,0.5523 h -1.29906 z m 18.40577,0 h 1.49405 c 1.46129,0 2.11084,0.0653 2.82525,0.22767 1.29893,0.3572 2.07795,1.49379 2.07795,2.98756 0,1.16904 -0.51911,2.078 -1.46083,2.59757 -0.68194,0.3572 -1.91629,0.5523 -3.63736,0.5523 h -1.29906 z"
       style="font-style:normal;font-variant:normal;font-weight:600;font-stretch:normal;font-size:30.8089px;line-height:125%;font-family:'URW Gothic L';-inkscape-font-specification:'URW Gothic L Semi-Bold';letter-spacing:0px;word-spacing:0px;fill:#4d4d4d;fill-opacity:1;stroke:none;stroke-width:0.811834px;stroke-linecap:butt;stroke-linejoin:miter;stroke-opacity:1"
       id="path1691-8" />
    <path
       id="path1693-1"
       style="font-style:normal;font-variant:normal;font-weight:bold;font-stretch:normal;font-size:50.322px;line-height:125%;font-family:'PT Sans';-inkscape-font-specification:'PT Sans Bold';letter-spacing:0px;word-spacing:0px;fill:#d40000;fill-opacity:1;stroke:none;stroke-width:1.44077px;stroke-linecap:butt;stroke-linejoin:miter;stroke-opacity:1"
       d="m 879.8131,-694.41497 c -5.58108,0 -9.00462,1.98038 -8.99826,10.14898 3.90528,-3.43176 4.33378,-4.11135 7.99093,-4.15484 l -0.99267,21.00586 c -0.27457,3.94175 10.20995,3.9148 10,0 l -1.00312,-21.00372 8.00312,0.004 v 18.00002 c 0.14881,8.56508 13.16383,7.06393 16,0 -2.00658,0.60557 -8.22034,1.07023 -8.02525,-2.54504 l 0.0252,-15.45498 h 4 c 2.33658,0 4,-1.26208 4,-3.5 v -2.5 c 10.23306,-0.0715 -41.23321,0.0387 -30.99999,2e-5 z"
       sodipodi:nodetypes="cccccccccccsccc" />
    <path
       style="opacity:1;fill:#4d4d4d;fill-opacity:1;stroke:#4d4d4d;stroke-width:3.11208;stroke-linecap:butt;stroke-linejoin:miter;stroke-miterlimit:4;stroke-dasharray:none;stroke-opacity:1;paint-order:markers stroke fill"
       d="m 914.8073,-665.93846 h 95.1238"
       id="path3743-7" />
    <path
       inkscape:connector-curvature="0"
       inkscape:export-ydpi="25.46162"
       inkscape:export-xdpi="25.46162"
       inkscape:export-filename="/tmp/comtor_pixel2.png"
       id="path4155"
       d="m 53.671053,39.651866 c 1.775385,1.156318 3.319886,2.68075 4.515021,4.541397 5.053807,7.819427 2.171027,18.666567 -6.438578,24.22354 -8.595668,5.545923 -19.653872,3.715666 -24.707533,-4.103812 -1.195276,-1.860674 -1.956018,-3.896655 -2.276634,-5.987801 l 3.215583,-2.089248 c 0.06164,2.170232 0.720092,4.307258 1.94616,6.205775 4.113618,6.370227 13.130373,7.86463 20.134014,3.340397 6.991562,-4.524981 9.343084,-13.348089 5.241749,-19.717681 -1.236401,-1.911087 -2.912215,-3.384203 -4.857593,-4.3241 l 3.227811,-2.088467"
       style="color:#000000;font-size:12px;clip-rule:nonzero;display:inline;overflow:visible;visibility:visible;opacity:1;isolation:auto;mix-blend-mode:normal;color-interpolation:sRGB;color-interpolation-filters:linearRGB;solid-color:#000000;solid-opacity:1;fill:#0e56a6;fill-opacity:1;fill-rule:evenodd;stroke:none;stroke-width:0.249085;stroke-linecap:butt;stroke-linejoin:miter;stroke-miterlimit:4;stroke-dasharray:none;stroke-dashoffset:0;stroke-opacity:1;color-rendering:auto;image-rendering:auto;shape-rendering:auto;text-rendering:auto;enable-background:accumulate" />
    <g
       inkscape:export-ydpi="25.46162"
       inkscape:export-xdpi="25.46162"
       inkscape:export-filename="/tmp/comtor_pixel2.png"
       transform="matrix(0.19338164,9.4713619e-4,-0.04201153,0.21250246,14.134131,-137.51206)"
       style="font-style:italic;font-weight:bold;font-size:125.953px;line-height:100%;font-family:Verdana;writing-mode:lr-tb;text-anchor:start;display:inline;fill:#0e56a6;fill-opacity:1;stroke:none;stroke-width:1.64589;stroke-linecap:butt;stroke-linejoin:miter;stroke-dasharray:none;stroke-opacity:1"
       id="text4157">
      <path
         sodipodi:nodetypes="ccscscsscccscsccccc"
         d="m 518.39546,915.2015 -3.97903,15.12096 c -5.1707,-3.1203 -10.43111,-4.6842 -15.15298,-4.67826 -7.80424,0.01 -14.4531,3.85867 -19.12124,8.74542 -4.55103,4.79703 -7.29999,9.09375 -7.29999,16.5968 0,4.79703 1.41451,8.52806 4.24353,11.19307 2.82902,2.62402 6.82655,3.93603 11.99258,3.93603 3.44402,0 6.82654,-0.5125 10.14757,-1.53751 3.32102,-1.02501 7.02532,-3.90685 10.01834,-5.91587 l -3.9298,19.38446 c -3.64903,1.27101 -7.31855,2.21401 -11.00858,2.82902 -3.69002,0.656 -7.40054,0.984 -11.13157,0.984 -10.82407,0 -19.16762,-2.41901 -25.03066,-7.25704 -5.82204,-4.87903 -8.73306,-11.78758 -8.73306,-20.72564 0,-5.61703 1.06601,-11.07007 3.19802,-16.35911 2.17301,-5.28903 5.26853,-10.04506 9.28656,-14.26809 9.36976,-7.8407 23.18652,-11.78879 35.83617,-11.86127 3.48503,0 6.94955,0.328 10.39357,0.98401 3.44402,0.615 6.86754,1.558 10.27057,2.82902 z"
         style="fill:#0e56a6;fill-opacity:1;stroke:none;stroke-width:1.64589;stroke-dasharray:none;stroke-opacity:1"
         id="path4148" />
      <path
         sodipodi:nodetypes="ssscscscscssccsscscc"
         d="m 566.75333,925.27925 c -5.69903,0 -10.39356,2.58302 -14.08359,7.74905 -3.69002,5.16604 -5.53503,11.74658 -5.53503,19.74163 0,4.34603 0.98401,7.66706 2.95202,9.96307 2.00901,2.25501 4.92003,3.38252 8.73305,3.38252 5.69904,0 10.39357,-2.58302 14.08359,-7.74905 3.69003,-5.20703 5.53504,-11.82858 5.53504,-19.86463 0,-4.30503 -1.00451,-7.58505 -3.01352,-9.84006 -1.96801,-2.25502 -4.85853,-3.38253 -8.67156,-3.38253 z m 2.4959,-13.93235 c 10.25007,0 18.30662,2.60352 24.16965,7.81055 5.86304,5.20703 8.08218,10.48833 8.08218,19.46739 0,5.20703 -0.92251,10.27057 -2.76752,15.1906 -1.84501,4.87903 -4.53053,9.34806 -8.05655,13.40709 -4.18203,4.83803 -9.12256,8.48705 -14.8216,10.94707 -5.69903,2.46001 -12.05407,3.69002 -19.06512,3.69002 -10.12707,0 -18.12212,-2.60352 -23.98516,-7.81055 -5.82203,-5.20703 -8.73305,-12.30008 -8.73305,-21.27914 0,-5.16603 0.943,-10.20907 2.82901,-15.1291 7.10577,-17.10705 22.19288,-26.15458 42.34816,-26.29393 z"
         style="fill:#0e56a6;fill-opacity:1;stroke:none;stroke-width:1.64589;stroke-dasharray:none;stroke-opacity:1"
         id="path4150" />
      <path
         sodipodi:nodetypes="ccscsccccccccccccccccccccccccccc"
         d="m 685.0801,922.63474 c 3.40302,-4.22303 7.46128,-6.52193 11.76632,-8.77695 4.34602,-2.25502 8.85605,-3.38252 13.53008,-3.38252 6.15004,0 10.98807,1.70151 14.5141,5.10453 3.56702,3.36202 5.14629,7.05494 5.14629,12.95898 0,1.23001 -0.1025,2.64451 -0.3075,4.24352 -0.164,1.55801 -0.4305,3.34153 -0.7995,5.35054 l -8.46243,42.91524 h -22.20164 l 7.23241,-36.8882 0.1845,-0.92251 c 1.06601,-5.08403 1.59901,-8.34355 1.59901,-9.77856 0.5869,-4.42553 0.41919,-8.6714 -5.44332,-8.73825 -4.22303,0 -9.56277,3.16221 -12.51479,6.64723 -2.91102,3.44403 -5.00203,8.38456 -6.27304,14.8216 l -6.92492,34.85869 h -22.20164 l 7.35542,-36.8882 c 0.615,-3.07502 1.0455,-5.39154 1.2915,-6.94955 0.24601,-1.59901 0.36901,-2.84951 0.36901,-3.75152 -0.0536,-3.58419 -2.49631,-8.20769 -6.08946,-8.30427 -4.05902,0 -8.73214,2.78973 -11.80716,6.39775 -3.03402,3.56703 -5.14553,8.44606 -6.33454,14.6371 l -6.92491,34.85869 h -22.07865 l 13.84295,-70.09701 22.02938,-0.0314 -2.07174,10.36207 c 5.80188,-6.27496 13.44638,-10.64407 23.20316,-10.73755 4.75603,0 8.81805,0.22098 12.22107,2.681 3.40302,2.41901 5.45303,5.55553 6.15004,9.40956 z"
         style="fill:#0e56a6;fill-opacity:1;stroke:none;stroke-width:1.64589;stroke-dasharray:none;stroke-opacity:1"
         id="path4152" />
      <path
         sodipodi:nodetypes="cccccccscsccsssscccccccc"
         d="m 782.80422,891.63854 -2.95815,18.57877 h 22.50915 l -3.9299,16.72245 h -22.50915 l -5.65803,29.15119 c -0.164,0.65601 -0.287,1.20951 -0.369,1.66052 -0.041,0.451 -0.0615,0.8815 -0.0615,1.2915 0,1.88601 0.61501,3.23902 1.84502,4.05903 1.27101,0.82001 3.38252,1.23001 6.33454,1.23001 h 11.37757 l -3.13652,15.7441 h -18.51162 c -6.64204,0 -11.70557,-1.39401 -15.1906,-4.18203 -3.48502,-2.78801 -5.22753,-6.80604 -5.22753,-12.05407 0,-1.14801 0.0615,-2.37802 0.1845,-3.69003 0.123,-1.31201 0.3075,-2.64451 0.5535,-3.99752 l 5.65804,-29.2127 h -10.82407 l 3.8069,-16.72245 h 10.94707 l 3.01964,-18.57877 22.14015,0 z"
         style="fill:#0e56a6;fill-opacity:1;stroke:none;stroke-width:1.64589;stroke-dasharray:none;stroke-opacity:1"
         id="path4154" />
      <path
         sodipodi:nodetypes="ssscscscssssccsscscccs"
         d="m 844.98115,925.27925 c -5.69904,0 -10.39357,2.58302 -14.08359,7.74905 -3.69003,5.16604 -5.53504,11.74658 -5.53504,19.74163 0,4.34603 0.98401,7.66706 2.95202,9.96307 2.00901,2.25501 4.92003,3.38252 8.73306,3.38252 5.69903,0 10.39356,-2.58302 14.08359,-7.74905 3.69002,-5.20703 5.53503,-11.82858 5.53503,-19.86463 0,-4.30503 -1.00451,-7.58505 -3.01352,-9.84006 -1.96801,-2.25502 -4.85853,-3.38253 -8.67155,-3.38253 z m 1.78351,-15.7441 c 10.25007,0 18.30662,2.60352 24.16966,7.81055 5.86303,5.20703 8.79455,12.30008 8.79455,21.27914 0,5.20703 -0.9225,10.27057 -2.76751,15.1906 -1.84501,4.87903 -4.53053,9.34806 -8.05656,13.40709 -4.18203,4.83803 -9.12256,8.48705 -14.82159,10.94707 -5.69904,2.46001 -12.17754,2.65065 -19.18858,2.65065 -10.12707,0 -17.99867,-1.56415 -23.8617,-6.77118 -5.82204,-5.20703 -8.73306,-12.30008 -8.73306,-21.27914 0,-5.16603 0.94301,-10.20907 2.82902,-15.1291 1.88601,-4.96103 4.59203,-9.49155 8.11805,-13.59158 4.10003,-4.75603 8.97906,-8.36406 14.6371,-10.82407 5.69903,-2.46002 11.99257,-3.69003 18.88062,-3.69003 z"
         style="fill:#0e56a6;fill-opacity:1;stroke:none;stroke-width:1.64589;stroke-dasharray:none;stroke-opacity:1"
         id="path4156" />
      <path
         sodipodi:nodetypes="cssccccccccsscc"
         d="m 949.10132,929.95328 c -1.51701,-0.861 -3.19802,-1.517 -5.04303,-1.96801 -1.84501,-0.451 -3.83353,-0.6765 -5.96554,-0.6765 -5.61703,0 -10.29106,1.80401 -14.02209,5.41203 -3.69003,3.60803 -6.19104,8.81506 -7.50305,15.6211 l -6.27304,31.73421 -22.07864,0 14.01476,-70.24698 21.50478,-0.0462 -2.37083,13.22084 c 2.91102,-4.34603 6.53954,-7.66705 10.88557,-9.96307 4.38703,-2.33701 9.24556,-3.50552 14.5756,-3.50552 0.779,0 1.6605,0.041 2.64451,0.123 0.98401,0.082 2.15252,0.205 3.50553,0.369 z"
         style="fill:#0e56a6;fill-opacity:1;stroke:none;stroke-width:1.64589;stroke-dasharray:none;stroke-opacity:1"
         id="path4158" />
    </g>
    <g
       inkscape:export-ydpi="25.46162"
       inkscape:export-xdpi="25.46162"
       inkscape:export-filename="/tmp/comtor_pixel2.png"
       transform="matrix(0.16576758,0,-0.01985555,0.16576649,21.212369,-99.703737)"
       style="font-style:italic;font-weight:bold;font-size:114.988px;line-height:100%;font-family:Verdana;writing-mode:lr-tb;text-anchor:start;display:inline;fill:#ff5a01;fill-opacity:1;stroke:none;stroke-width:1.43735pt;stroke-linecap:butt;stroke-linejoin:miter;stroke-opacity:1"
       id="text4161">
      <path
         d="m 241.85483,964.51145 q -7.74822,2.75118 -14.87883,4.15485 -7.13061,1.40366 -13.53131,1.40366 -16.90011,0 -27.00649,-9.26418 -10.10637,-9.26417 -10.10637,-24.53603 0,-10.05023 3.20035,-18.92138 3.20035,-8.9273 9.43262,-16.28249 7.35519,-8.64657 17.68616,-13.30673 10.3871,-4.66016 22.34631,-4.66016 6.513,0 13.08214,1.5721 6.56915,1.51596 13.36288,4.66016 l -3.48109,17.34928 q -5.39006,-4.0987 -10.83628,-6.00768 -5.44621,-1.90898 -11.67847,-1.90898 -12.96985,0 -21.72871,9.99408 -8.75886,9.99408 -8.75886,24.98521 0,9.6572 5.39007,15.15956 5.39006,5.50236 14.87883,5.50236 5.6708,0 12.01535,-2.02128 6.40071,-2.07742 14.31737,-6.45685 z"
         style="fill:#ff5a01;fill-opacity:1;stroke:none;stroke-width:1.79669"
         id="path4168" />
    </g>
    <g
       inkscape:export-ydpi="25.46162"
       inkscape:export-xdpi="25.46162"
       inkscape:export-filename="/tmp/comtor_pixel2.png"
       transform="matrix(0.16978756,0,-0.02033706,0.16978645,20.497735,-103.68625)"
       style="font-style:italic;font-weight:bold;font-size:114.988px;line-height:100%;font-family:Verdana;writing-mode:lr-tb;text-anchor:start;display:inline;fill:#ff5a01;fill-opacity:1;stroke:none;stroke-width:1.43735pt;stroke-linecap:butt;stroke-linejoin:miter;stroke-opacity:1"
       id="text4165">
      <path
         d="m 234.12371,914.97017 h 77.25762 l -3.20035,16.33864 H 280.3323 l -13.13828,67.48813 H 245.5776 l 13.13829,-67.48813 h -27.84868 z"
         style="fill:#ff5a01;fill-opacity:1;stroke:none;stroke-width:1.79669"
         id="path4165" />
    </g>
  </g>
</svg>
