<?xml version="1.0" encoding="utf-8"?>
<!-- Generator: Adobe Illustrator 27.6.1, SVG Export Plug-In . SVG Version: 6.00 Build 0)  -->
<svg version="1.1" id="Layer_1" xmlns="http://www.w3.org/2000/svg" xmlns:xlink="http://www.w3.org/1999/xlink" x="0px" y="0px"
	 viewBox="0 0 284.9 82" style="enable-background:new 0 0 284.9 82;" xml:space="preserve">
<style type="text/css">
	.st0{fill:#1057A4;}
	.st1{fill:#FF3C00;}
</style>
<g>
	<g>
		<path class="st0" d="M31.7,30h29l0,0h14.8c0.9-0.7,1.8-1.4,2.8-2.2c0.6-0.5,1.2-0.5,1.8-0.3c4.9,1.5,9.7-0.1,12.1-4.2
			c1-1.7,1.4-3.8,1.4-5.8l-1.4-1.7l-4.9,3.9c-0.9,0.7-2.1,0.5-2.8-0.3l-1.5-1.9l-1.5-1.9c-0.7-0.9-0.5-2.1,0.3-2.8l4.9-3.9L85.3,7
			c-1.9-0.5-4.1-0.6-5.9,0c-4.5,1.4-7.1,5.7-6.8,10.9c0,0.6-0.2,1.2-0.8,1.7c-3.1,2.5-5.8,4.6-8.8,7.1L61.2,28l4.9-18.4
			c0.4-1.4-0.5-2.9-1.9-3.3L41.4,0.1c-1.5-0.4-3,0.5-3.4,2l-6.8,25.5c-0.2-1.3-0.9-2.3-1.9-3.1c-1.2-0.9-3.9-1.3-4.3-3L21.3,9.7
			c1-0.3,1.1-0.9,0.9-2L22,6.6c-0.2-1.1-1.3-1.9-2.5-1.7l-6.6,1.3c-1.1,0.2-1.9,1.4-1.6,2.5l0.2,1.1c0.2,1,0.8,1.7,1.7,1.7l0.7,12.1
			c0.3,1.7-2,3.2-2.8,4.5c-0.3,0.6-0.6,1.2-0.7,1.8L31.7,30L31.7,30L31.7,30L31.7,30L31.7,30"/>
		<path class="st0" d="M90.8,34h-8.5H10.7H2.1c-1.5,0-2.6,1.2-2.6,2.7v5.7c0,1.5,1.2,2.7,2.6,2.7h3.2l5.3,33.5
			C10.2,78.9,10,79.4,10,80c0,1.1,0.9,2,2,2h69c1.1,0,2-0.9,2-2c0-0.6-0.3-1.2-0.7-1.5L87.6,45h3.2c1.5,0,2.7-1.2,2.7-2.7v-5.7
			C93.5,35.2,92.3,34,90.8,34z M16.5,51.3v-3.6c0-1.5,1.2-2.7,2.8-2.7h6.5c1.5,0,2.8,1.2,2.8,2.7v3.6c0,1.5-1.2,2.7-2.8,2.7h-6.5
			C17.7,54,16.5,52.8,16.5,51.3z M29.5,69.3c0,1.5-1.2,2.7-2.8,2.7h-6.5c-1.5,0-2.8-1.2-2.8-2.7v-3.6c0-1.5,1.2-2.7,2.8-2.7h6.5
			c1.5,0,2.8,1.2,2.8,2.7L29.5,69.3L29.5,69.3z M52.5,69.3c0,1.5-1.2,2.7-2.8,2.7h-6.5c-1.5,0-2.8-1.2-2.8-2.7v-3.6
			c0-1.5,1.2-2.7,2.8-2.7h6.5c1.5,0,2.8,1.2,2.8,2.7V69.3z M52.5,51.3c0,1.5-1.2,2.7-2.8,2.7h-6.5c-1.5,0-2.8-1.2-2.8-2.7v-3.6
			c0-1.5,1.2-2.7,2.8-2.7h6.5c1.5,0,2.8,1.2,2.8,2.7L52.5,51.3L52.5,51.3z M75.5,69.3c0,1.5-1.2,2.7-2.8,2.7h-6.5
			c-1.5,0-2.8-1.2-2.8-2.7v-3.6c0-1.5,1.2-2.7,2.8-2.7h6.5c1.5,0,2.8,1.2,2.8,2.7L75.5,69.3L75.5,69.3z M76.5,51.3
			c0,1.5-1.2,2.7-2.8,2.7h-6.5c-1.5,0-2.8-1.2-2.8-2.7v-3.6c0-1.5,1.2-2.7,2.8-2.7h6.5c1.5,0,2.8,1.2,2.8,2.7L76.5,51.3L76.5,51.3z"
			/>
	</g>
	<g>
		<g>
			<path class="st1" d="M143.7,10.8l-0.7,4.4c-0.1,0.9-1.1,1.7-2,1.7h-6.2l-3.9,24.4c-0.2,1-1.1,1.8-2,1.8h-4.9
				c-0.9,0-1.6-0.8-1.4-1.8l3.9-24.4h-6.2c-1,0-1.6-0.8-1.5-1.7l0.7-4.4c0.2-1,1.1-1.8,2-1.8h20.8C143.2,9,143.9,9.8,143.7,10.8z"/>
			<path class="st1" d="M167.6,30.7c-1.2,7.3-7.6,12.9-15.3,12.9c-7.7,0-12.3-5.6-11.1-12.9c1.2-7.3,7.6-12.9,15.3-12.9
				C164.2,17.8,168.8,23.4,167.6,30.7z M159.7,30.7c0.5-2.9-1.2-5.3-4.4-5.3c-3.2,0-5.6,2.4-6.1,5.3c-0.5,2.9,1.2,5.2,4.4,5.2
				C156.7,36,159.2,33.6,159.7,30.7z"/>
			<path class="st1" d="M209.2,26.7l-2.4,14.5c-0.2,1-1.1,1.8-2.1,1.8h-4.6c-1,0-1.7-0.8-1.5-1.8l2.1-12.4c0.5-2.8-1.5-3.3-2.8-3.3
				c-1.4,0-3.5,0.6-4,3.3l-2.1,12.4c-0.2,1-1.1,1.8-2.1,1.8h-4.6c-1,0-1.6-0.8-1.5-1.8l2.1-12.4c0.5-2.8-1.5-3.3-2.9-3.3
				c-1.3,0-3.5,0.6-4,3.3l-2.1,12.4c-0.2,1-1.1,1.8-2.1,1.8h-4.6c-1,0-1.7-0.8-1.5-1.8l3.5-21.1c0.2-1,1.1-1.8,2.1-1.8h5
				c0.7,0,1.2,0.6,1.1,1.3l-0.1,0.6c1.6-1.4,3.7-2.5,6.8-2.5c3.5,0,5.6,1.3,6.6,3.3c1.8-1.8,4.4-3.3,7.9-3.3
				C207.9,17.8,210.1,21.8,209.2,26.7z"/>
			<path class="st1" d="M233.4,18.4h4.9c1,0,1.6,0.8,1.5,1.8l-3.4,21.1c-0.2,1-1.1,1.8-2,1.8h-4.9c-0.7,0-1.2-0.6-1.1-1.3l0.2-1.1
				c-1.8,1.8-4.1,3-7.4,3c-7.7,0-10.8-6.5-9.7-12.9c1-6.5,6.2-12.9,13.9-12.9c3.3,0,5.3,1.2,6.5,3l0.2-1.1
				C232,19,232.7,18.4,233.4,18.4z M229.8,30.7c0.5-3.3-1.5-5.3-4.4-5.3c-3.3,0-5.6,2.2-6.1,5.3c-0.5,3,1.1,5.2,4.4,5.2
				C226.7,36,229.3,34,229.8,30.7z"/>
		</g>
		<g>
			<path class="st1" d="M136.9,60.9c-1.2,7.8-7.7,11.4-14.9,11.4h-4.2l-1.3,8.1c-0.1,0.9-1,1.7-1.9,1.7h-4.7c-0.9,0-1.6-0.8-1.4-1.7
				l4.8-29.6c0.1-0.9,1-1.7,2-1.7h10.6C133.9,49,138,53.7,136.9,60.9z M128.7,60.9c0.4-2.5-1.1-4.2-4.2-4.2h-4.2l-1.4,8.4h4.2
				C126.1,65,128.3,63.7,128.7,60.9z"/>
			<path class="st1" d="M162.1,70.7c-0.1,0.9-1,1.7-1.9,1.7h-15.6c0.4,2.8,2.4,4.1,5.4,4.1c1.9,0,3.4-0.7,4.5-1.5
				c0.5-0.4,1.1-0.4,1.5-0.1l3,2c0.6,0.4,0.6,1.3,0,1.9c-2.4,2.3-6,3.8-10,3.8c-8.1,0-12.6-5.1-11.4-12.5
				c1.1-7.1,7.5-12.5,14.3-12.5C158.5,57.6,163.7,61.8,162.1,70.7z M155.6,67.8c-0.2-2.8-1.9-4.1-4.5-4.1c-2.4,0-4.6,1.5-5.8,4.1
				H155.6z"/>
			<path class="st1" d="M187.8,49h4.3c0.9,0,1.6,0.8,1.4,1.7l-4.8,29.6c-0.1,0.9-1,1.7-2,1.7h-4.7c-0.7,0-1.2-0.6-1.1-1.3l0.2-1.1
				c-1.6,1.7-3.9,2.9-7.2,2.9c-7.4,0-10.4-6.3-9.4-12.5c1-6.3,6.1-12.5,13.4-12.5c3.2,0,5.2,1.2,6.2,2.9l1.6-9.8
				C186,49.8,186.9,49,187.8,49z M182.5,70.1c0.5-3.2-1.4-5.1-4.2-5.1c-3.2,0-5.5,2.2-5.9,5.1c-0.5,2.9,1.1,5.1,4.3,5.1
				C179.5,75.2,182,73.2,182.5,70.1z"/>
			<path class="st1" d="M193.9,80.3l3.3-20.5c0.1-0.9,1-1.7,2-1.7h4.3c0.9,0,1.6,0.8,1.4,1.7l-3.3,20.5c-0.1,0.9-1,1.7-2,1.7h-4.3
				C194.4,82,193.7,81.3,193.9,80.3z M198.3,51.4c0.4-2.2,2.5-4,4.7-4s3.7,1.8,3.4,4s-2.4,4-4.6,4S198,53.6,198.3,51.4z"/>
			<path class="st1" d="M230.1,49h4.3c0.9,0,1.6,0.8,1.4,1.7l-4.8,29.6c-0.1,0.9-1,1.7-2,1.7h-4.7c-0.7,0-1.2-0.6-1.1-1.3l0.2-1.1
				c-1.6,1.7-3.9,2.9-7.2,2.9c-7.4,0-10.4-6.3-9.4-12.5c1-6.3,6.1-12.5,13.4-12.5c3.2,0,5.2,1.2,6.2,2.9l1.6-9.8
				C228.3,49.8,229.2,49,230.1,49z M224.8,70.1c0.5-3.2-1.4-5.1-4.2-5.1c-3.2,0-5.5,2.2-5.9,5.1c-0.5,2.9,1.1,5.1,4.3,5.1
				C221.8,75.2,224.3,73.2,224.8,70.1z"/>
			<path class="st1" d="M262,70.1c-1.1,7.1-7.3,12.5-14.8,12.5c-7.4,0-11.9-5.5-10.8-12.5c1.1-7.1,7.4-12.5,14.8-12.5
				C258.7,57.6,263.2,63,262,70.1z M254.4,70.1c0.5-2.8-1.2-5.1-4.3-5.1c-3.1,0-5.5,2.4-5.9,5.1c-0.5,2.8,1.2,5.1,4.3,5.1
				C251.5,75.2,253.9,72.9,254.4,70.1z"/>
			<path class="st1" d="M284.2,74.6c-0.8,5-5,8-12,8c-4.2,0-8.1-1.2-9.2-4.4c-0.3-0.7,0.2-1.5,1-1.7L269,75c0.5-0.1,1.1,0.1,1.3,0.5
				c0.4,0.7,1.2,1.2,2.8,1.2c1.6,0,2.9-0.5,3.1-1.7c0.3-1.6-2.2-1.6-4.9-2.2c-4.5-1-6.6-2.6-5.9-7.3c0.8-5,5.5-7.8,11.5-7.8
				c3.6,0,6.9,1.5,7.9,4.6c0.2,0.7-0.4,1.6-1.1,1.8l-4.2,1c-0.5,0.1-1-0.1-1.2-0.5c-0.4-0.7-1.2-1-2.3-1c-1.5,0-2.9,0.4-3.2,1.8
				c-0.2,1.6,2.3,1.7,4.1,2C282.8,68.5,284.9,70.2,284.2,74.6z"/>
		</g>
	</g>
</g>
</svg>
