<?xml version="1.0" encoding="utf-8"?>
<!-- Generator: Adobe Illustrator 28.0.0, SVG Export Plug-In . SVG Version: 6.00 Build 0)  -->
<svg version="1.1" id="Layer_1" xmlns="http://www.w3.org/2000/svg" xmlns:xlink="http://www.w3.org/1999/xlink" x="0px" y="0px"
	 viewBox="0 0 64 64.3" style="enable-background:new 0 0 64 64.3;" xml:space="preserve">
<style type="text/css">
	.st0{fill:#FFFFFF;}
</style>
<g>
	<path class="st0" d="M9.2,61.6c5.6,1.8,11.4,2.7,17.2,2.6c12.2,0,26.4-3.3,26.4-12.5c0-10.8-6.6-20.6-16.7-24.5
		c6.5-5.3,7.5-15,2.1-21.5s-15-7.5-21.5-2.1s-7.5,15-2.1,21.5c0.6,0.8,1.3,1.5,2.1,2.1C6.6,31.2,0,40.9,0,51.8
		C0,54.7,1.6,58.9,9.2,61.6z M16.5,15.5c0-5.5,4.4-9.9,9.9-9.9c5.5,0,9.9,4.4,9.9,9.9c0,5.5-4.4,9.9-9.9,9.9
		C20.9,25.4,16.5,20.9,16.5,15.5z M26.4,30.7c11.6,0,21,9.4,21.1,21.1c0,3.9-9.4,7.2-21.1,7.2S5.3,55.7,5.3,51.8
		C5.4,40.1,14.8,30.7,26.4,30.7z"/>
	<path class="st0" d="M47.7,25.6h4v4c0,1.5,1.2,2.7,2.7,2.7c1.5,0,2.7-1.2,2.7-2.7v-4h4c1.5,0,2.7-1.2,2.7-2.7s-1.2-2.7-2.7-2.7h-4
		v-4c0-1.5-1.2-2.7-2.7-2.7c-1.5,0-2.7,1.2-2.7,2.7v4h-4c-1.5,0-2.7,1.2-2.7,2.7S46.3,25.6,47.7,25.6z"/>
</g>
</svg>
