<svg width="49" height="50" viewBox="0 0 49 50" fill="none" xmlns="http://www.w3.org/2000/svg">
<g filter="url(#filter0_d_650_22)">
<rect x="8" y="6" width="29" height="30" rx="8" fill="white"/>
<rect x="8.5" y="6.5" width="28" height="29" rx="7.5" stroke="white"/>
</g>
<path d="M19.203 20.05L18.6339 20.6191H19.4386H26.2858C26.4964 20.6191 26.6667 20.7896 26.6667 21C26.6667 21.2105 26.4964 21.381 26.2858 21.381H19.4386H18.6339L19.203 21.95L20.1265 22.8736C20.2754 23.0224 20.2754 23.2634 20.1265 23.4122C19.9776 23.561 19.7367 23.561 19.5878 23.4122L17.445 21.2694C17.3705 21.1948 17.3334 21.0979 17.3334 21C17.3334 20.9022 17.3705 20.8052 17.445 20.7307L19.5878 18.5878C19.7367 18.439 19.9776 18.439 20.1265 18.5878C20.2754 18.7367 20.2754 18.9776 20.1265 19.1265L19.203 20.05ZM22 11.3334C27.33 11.3334 31.6667 15.67 31.6667 21C31.6667 26.33 27.33 30.6667 22 30.6667C16.67 30.6667 12.3334 26.33 12.3334 21C12.3334 15.67 16.67 11.3334 22 11.3334ZM22 12.0953C17.0894 12.0953 13.0953 16.0897 13.0953 21C13.0953 25.9103 17.0894 29.9048 22 29.9048C26.9107 29.9048 30.9048 25.9103 30.9048 21C30.9048 16.0897 26.9107 12.0953 22 12.0953Z" fill="#1057A4" stroke="#1057A4"/>
<defs>
<filter id="filter0_d_650_22" x="0" y="0" width="49" height="50" filterUnits="userSpaceOnUse" color-interpolation-filters="sRGB">
<feFlood flood-opacity="0" result="BackgroundImageFix"/>
<feColorMatrix in="SourceAlpha" type="matrix" values="0 0 0 0 0 0 0 0 0 0 0 0 0 0 0 0 0 0 127 0" result="hardAlpha"/>
<feOffset dx="2" dy="4"/>
<feGaussianBlur stdDeviation="5"/>
<feComposite in2="hardAlpha" operator="out"/>
<feColorMatrix type="matrix" values="0 0 0 0 0 0 0 0 0 0 0 0 0 0 0 0 0 0 0.1 0"/>
<feBlend mode="normal" in2="BackgroundImageFix" result="effect1_dropShadow_650_22"/>
<feBlend mode="normal" in="SourceGraphic" in2="effect1_dropShadow_650_22" result="shape"/>
</filter>
</defs>
</svg>
