<?xml version="1.0" encoding="utf-8"?>
<!-- Generator: Adobe Illustrator 28.0.0, SVG Export Plug-In . SVG Version: 6.00 Build 0)  -->
<svg version="1.1" id="Layer_1" xmlns="http://www.w3.org/2000/svg" xmlns:xlink="http://www.w3.org/1999/xlink" x="0px" y="0px"
	 viewBox="0 0 44 26" style="enable-background:new 0 0 44 26;" xml:space="preserve">
<g>
	<g>
		<path d="M41.1,0h-5.4h-1.9H10.2H8.3H2.9C1.3,0,0,1.3,0,2.9v20.2C0,24.7,1.3,26,2.9,26h5.4h1.9h23.6h1.9h5.4c1.6,0,2.9-1.3,2.9-2.9
			V2.9C44,1.3,42.7,0,41.1,0z M42.1,2.9v5.2l0,0c-3.4,0-6.2-2.7-6.2-6.1h5.4C41.6,1.9,42.1,2.4,42.1,2.9z M2.9,1.9h5.4
			C8.3,5.3,5.5,8,2.1,8H1.9V2.9C1.9,2.4,2.4,1.9,2.9,1.9z M1.9,23.1v-5.2l0,0c3.4,0,6.2,2.7,6.2,6.1H2.9C2.4,24.1,1.9,23.6,1.9,23.1
			z M10.2,24.1c0-4.5-3.7-8.1-8.2-8.1H1.9v-6l0,0c4.5,0,8.1-3.6,8.2-8.1h23.6c0,4.5,3.7,8.1,8.2,8.1l0,0v6l0,0
			c-4.5,0-8.1,3.6-8.2,8.1C33.8,24.1,10.2,24.1,10.2,24.1z M41.1,24.1h-5.4c0-3.4,2.8-6.1,6.2-6.1l0,0v5.2
			C42.1,23.6,41.6,24.1,41.1,24.1z"/>
		<ellipse cx="10.4" cy="13" rx="2.4" ry="2.4"/>
		<ellipse cx="33.1" cy="13" rx="2.4" ry="2.4"/>
		<path d="M23,12V8.9c0.5,0.2,1,0.5,1.4,1l0.4,0.5L26,9l-0.2-0.3c-0.7-0.9-1.6-1.4-2.7-1.6V5.5h-1.7V7c-1.8,0.3-3,1.6-3,3.3
			c0,2.2,1.6,2.8,3,3.3v3.5c-0.9-0.2-1.5-0.9-1.8-1.2l-0.4-0.5L18,16.9l0.2,0.3c0.8,1,1.9,1.7,3.2,1.9v1.5h1.7V19
			c2.3-0.4,3.1-2.1,3.1-3.5C26.1,13.2,24.3,12.4,23,12z M21.3,11.5c-0.8-0.3-1.1-0.7-1.1-1.2c0-0.7,0.4-1.2,1.1-1.4V11.5z M23,17.1
			v-3c0.9,0.4,1.2,0.8,1.2,1.4C24.2,16,24.1,16.8,23,17.1z"/>
	</g>
</g>
</svg>
