<?xml version="1.0" encoding="utf-8"?>
<!-- Generator: Adobe Illustrator 28.0.0, SVG Export Plug-In . SVG Version: 6.00 Build 0)  -->
<svg version="1.1" id="Layer_1" xmlns="http://www.w3.org/2000/svg" xmlns:xlink="http://www.w3.org/1999/xlink" x="0px" y="0px"
	 viewBox="0 0 20 20" style="enable-background:new 0 0 20 20;" xml:space="preserve">
<g>
	<path d="M10,20c5.5,0,10-4.5,10-10S15.5,0,10,0S0,4.5,0,10S4.5,20,10,20z M4.8,10.3c0.4-0.4,0.9-0.4,1.3,0l2.1,2.1l5.3-5.3
		c0.4-0.3,1-0.3,1.3,0.1C15,7.5,15,8,14.7,8.4l-5.9,5.9c-0.4,0.4-0.9,0.4-1.3,0l-2.7-2.7C4.5,11.2,4.5,10.6,4.8,10.3z"/>
</g>
</svg>
