<?xml version="1.0" encoding="utf-8"?>
<!-- Generator: Adobe Illustrator 28.0.0, SVG Export Plug-In . SVG Version: 6.00 Build 0)  -->
<svg version="1.1" id="Layer_1" xmlns="http://www.w3.org/2000/svg" xmlns:xlink="http://www.w3.org/1999/xlink" x="0px" y="0px"
	 viewBox="0 0 79.6 56.4" style="enable-background:new 0 0 79.6 56.4;" xml:space="preserve">
<g>
	<path d="M79.6,10c0-5.5-4.5-10-10-10H10C4.5,0,0,4.5,0,10v36.4c0,5.5,4.5,10,10,10h59.6c5.5,0,10-4.5,10-10V10z M9.9,4h59.7
		c3.3,0,6,2.7,6,6v2.6H4V10C4,6.7,6.7,4,9.9,4L9.9,4L9.9,4z M75.6,16.7v6.1H4v-6.1H75.6z M69.6,52.4H10c-3.3,0-6-2.7-6-6V26.8h71.6
		v19.6C75.6,49.7,72.9,52.4,69.6,52.4z"/>
	<path d="M64.6,37.8H55c-1.1,0-2,0.9-2,2s0.9,2,2,2h9.7c1.1,0,2-0.9,2-2S65.8,37.8,64.6,37.8L64.6,37.8z"/>
</g>
</svg>
