<?xml version="1.0" encoding="utf-8"?>
<!-- Generator: Adobe Illustrator 28.0.0, SVG Export Plug-In . SVG Version: 6.00 Build 0)  -->
<svg version="1.1" id="Layer_1" xmlns="http://www.w3.org/2000/svg" xmlns:xlink="http://www.w3.org/1999/xlink" x="0px" y="0px"
	 viewBox="0 0 79.6 56.4" style="enable-background:new 0 0 79.6 56.4;" xml:space="preserve">
<style type="text/css">
	.st0{fill:#FFFFFF;}
</style>
<g>
	<path class="st0" d="M75.1,29.8H31.2c-1.1,0-2.1-0.9-2.1-2.1V3.5c0-1.1,0.9-2.1,2.1-2.1h43.9c1.1,0,2.1,0.9,2.1,2.1v24.2
		C77.1,28.9,76.2,29.8,75.1,29.8z"/>
	<g>
		<g>
			<path d="M76.1,0h-6.5h-2.3H39h-2.3h-6.5c-1.9,0-3.5,1.6-3.5,3.5v24.2c0,1.9,1.6,3.5,3.5,3.5h6.5H39h28.3h2.3h6.5
				c1.9,0,3.5-1.6,3.5-3.5V3.5C79.6,1.6,78,0,76.1,0z M77.3,3.5v6.2l0,0c-4.1,0-7.4-3.2-7.4-7.3h6.5C76.7,2.3,77.3,2.9,77.3,3.5z
				 M30.3,2.3h6.5c0,4.1-3.4,7.3-7.4,7.3h-0.2V3.5C29.1,2.9,29.7,2.3,30.3,2.3z M29.1,27.7v-6.2l0,0c4.1,0,7.4,3.2,7.4,7.3h-6.2
				C29.7,28.9,29.1,28.3,29.1,27.7z M39,28.9c0-5.4-4.4-9.7-9.8-9.7h-0.1V12l0,0c5.4,0,9.7-4.3,9.8-9.7h28.3c0,5.4,4.4,9.7,9.8,9.7
				l0,0v7.2l0,0c-5.4,0-9.7,4.3-9.8,9.7C67.4,28.9,39,28.9,39,28.9z M76.1,28.9h-6.5c0-4.1,3.4-7.3,7.4-7.3l0,0v6.2
				C77.3,28.3,76.7,28.9,76.1,28.9z"/>
			<ellipse cx="39.3" cy="15.6" rx="2.9" ry="2.9"/>
			<ellipse cx="66.5" cy="15.6" rx="2.9" ry="2.9"/>
			<path d="M54.4,14.4v-3.7c0.6,0.2,1.2,0.6,1.7,1.2l0.5,0.6l1.4-1.7l-0.2-0.4c-0.8-1.1-1.9-1.7-3.2-1.9V6.6h-2v1.8
				c-2.2,0.4-3.6,1.9-3.6,4c0,2.6,1.9,3.4,3.6,4v4.2c-1.1-0.2-1.8-1.1-2.2-1.4l-0.5-0.6l-1.4,1.8l0.2,0.4c1,1.2,2.3,2,3.8,2.3v1.8h2
				v-1.9c2.8-0.5,3.7-2.5,3.7-4.2C58.1,15.9,56,14.9,54.4,14.4z M52.4,13.8c-1-0.4-1.3-0.8-1.3-1.4c0-0.8,0.5-1.4,1.3-1.7V13.8z
				 M54.4,20.5v-3.6c1.1,0.5,1.4,1,1.4,1.7C55.8,19.2,55.7,20.2,54.4,20.5z"/>
		</g>
	</g>
</g>
<g>
	<rect x="2.6" y="21.9" class="st0" width="47.2" height="31.9"/>
	<g>
		<path d="M52.4,25.8c0-3.6-3-6.6-6.6-6.6H6.6c-3.6,0-6.6,3-6.6,6.6v24c0,3.6,3,6.6,6.6,6.6h39.3c3.6,0,6.6-3,6.6-6.6V25.8z
			 M6.5,21.9h39.3c2.2,0,4,1.8,4,4v1.7H2.6v-1.7C2.6,23.7,4.4,21.9,6.5,21.9L6.5,21.9L6.5,21.9z M49.8,30.2v4H2.6v-4H49.8z
			 M45.9,53.8H6.6c-2.2,0-4-1.8-4-4V36.9h47.2v12.9C49.8,52,48,53.8,45.9,53.8z"/>
		<path d="M42.6,44.1h-6.3c-0.7,0-1.3,0.6-1.3,1.3c0,0.7,0.6,1.3,1.3,1.3h6.4c0.7,0,1.3-0.6,1.3-1.3C43.9,44.7,43.4,44.1,42.6,44.1
			L42.6,44.1z"/>
	</g>
</g>
</svg>
