<?xml version="1.0" encoding="utf-8"?>
<!-- Generator: Adobe Illustrator 28.0.0, SVG Export Plug-In . SVG Version: 6.00 Build 0)  -->
<svg version="1.1" id="Layer_1" xmlns="http://www.w3.org/2000/svg" xmlns:xlink="http://www.w3.org/1999/xlink" x="0px" y="0px"
	 viewBox="0 0 72 59" style="enable-background:new 0 0 72 59;" xml:space="preserve">
<style type="text/css">
	.st0{fill:url(#SVGID_1_);}
	.st1{fill:#FFFFFF;}
</style>
<g>
	
		<linearGradient id="SVGID_1_" gradientUnits="userSpaceOnUse" x1="0" y1="30.5" x2="72" y2="30.5" gradientTransform="matrix(1 0 0 -1 0 60)">
		<stop  offset="0" style="stop-color:#FF3C00"/>
		<stop  offset="1" style="stop-color:#D54B17"/>
	</linearGradient>
	<path class="st0" d="M5,0h62c2.8,0,5,2.2,5,5v49c0,2.8-2.2,5-5,5H5c-2.8,0-5-2.2-5-5V5C0,2.2,2.2,0,5,0z"/>
</g>
<path class="st1" d="M22.2,13.5c-0.5,0-1,0.4-0.9,0.8v30.4c0,0.3,0.2,0.6,0.5,0.7c0.3,0.1,0.7,0.1,1-0.1l4.6-2.5l3.7,2.5
	c0.3,0.2,0.9,0.2,1.3,0l3.6-2.4l3.6,2.4c0.3,0.2,0.9,0.2,1.3,0l3.7-2.5l4.6,2.5c0.3,0.2,0.7,0.2,1,0.1c0.3-0.1,0.5-0.4,0.5-0.7
	c0-10.1,0-20.3,0-30.4c0.1-0.3-0.1-0.6-0.5-0.7c-0.3-0.1-0.8-0.1-1.1,0l-4.6,2.5l-3.7-2.5c-0.3-0.2-0.9-0.2-1.3,0L36,16.1l-3.6-2.4
	c-0.3-0.2-0.9-0.2-1.3,0l-3.7,2.5l-4.6-2.5C22.6,13.5,22.4,13.5,22.2,13.5L22.2,13.5z M31.7,15.2l3.6,2.4c0.3,0.2,0.9,0.2,1.3,0
	l3.6-2.4l3.6,2.4c0.3,0.2,0.9,0.2,1.2,0l3.7-2v27.8l-3.7-2c-0.3-0.2-0.9-0.2-1.2,0l-3.6,2.4l-3.6-2.4c-0.3-0.2-0.9-0.2-1.3,0
	l-3.6,2.4l-3.6-2.4c-0.2-0.1-0.5-0.2-0.7-0.2c-0.2,0-0.3,0.1-0.5,0.1l-3.7,2V15.6l3.7,2c0.3,0.2,0.9,0.2,1.2,0L31.7,15.2z
	 M36.1,20.5c-0.6,0-1.1,0.5-1.1,1.1v0.7c-1.8,0.4-3.3,2-3.3,4.1c0,1.3,0.7,2.4,1.4,3c0.8,0.6,1.6,0.8,2.3,1.2
	c1.3,0.5,2.6,1.1,2.6,2.2c0,1.4-0.8,2.1-2.1,2.1c-1,0-1.8-0.8-2.2-1.5c-0.2-0.6-0.9-0.8-1.4-0.6c-0.5,0.3-0.7,1-0.4,1.5
	c0.6,1.1,1.6,2.3,3.1,2.6v0.6c0,0.6,0.5,1.1,1.1,1.1c0.6,0,1.1-0.5,1.1-1.1v-0.6c1.7-0.5,3.1-2.1,3.1-4.1c0-1.3-0.6-2.4-1.4-3
	c-0.8-0.6-1.6-0.8-2.3-1.2c-1.2-0.5-2.6-1.1-2.6-2.2c0-1.4,0.8-2.1,2.1-2.1c1,0,1.8,0.8,2.2,1.5c0.2,0.6,0.9,0.8,1.5,0.6
	c0.5-0.3,0.7-1,0.4-1.5c-0.5-1.1-1.5-2.1-2.9-2.5v-0.8C37.2,20.9,36.7,20.5,36.1,20.5z"/>
</svg>
