<?xml version="1.0" encoding="utf-8"?>
<!-- Generator: Adobe Illustrator 28.0.0, SVG Export Plug-In . SVG Version: 6.00 Build 0)  -->
<svg version="1.1" id="Layer_1" xmlns="http://www.w3.org/2000/svg" xmlns:xlink="http://www.w3.org/1999/xlink" x="0px" y="0px"
	 viewBox="0 0 20.1 21" style="enable-background:new 0 0 20.1 21;" xml:space="preserve">
<style type="text/css">
	.st0{fill-rule:evenodd;clip-rule:evenodd;fill:#FFFFFF;}
</style>
<path class="st0" d="M17.1,3.1C13.2-1,6.8-1,2.9,3.1s-3.9,10.7,0,14.8c2,2.1,4.5,3,7.1,3s5.1-1,7.1-3C21,13.7,21,7.1,17.1,3.1z
	 M16.1,16.7c-3.3,3.5-8.7,3.5-12,0C0.7,13.3,0.7,7.6,4,4.1c1.7-1.8,3.8-2.6,6-2.6c2.2,0,4.4,0.9,6,2.6C19.4,7.6,19.4,13.3,16.1,16.7
	z M13.2,7.1c-0.3-0.3-0.7-0.3-1,0L10,9.3L7.9,7.1c-0.3-0.3-0.7-0.3-1,0c-0.3,0.3-0.3,0.8,0,1.1L9,10.4l-2.2,2.3
	c-0.3,0.3-0.3,0.8,0,1.1C7,13.9,7.2,14,7.4,14s0.4-0.1,0.5-0.2l2.2-2.3l2.2,2.3c0.1,0.2,0.3,0.2,0.5,0.2c0.2,0,0.4-0.1,0.5-0.2
	c0.3-0.3,0.3-0.8,0-1.1l-2.2-2.3l2.2-2.3C13.5,7.8,13.5,7.4,13.2,7.1z"/>
</svg>
