<svg width="21" height="21" viewBox="0 0 21 21" fill="none" xmlns="http://www.w3.org/2000/svg">
<path fill-rule="evenodd" clip-rule="evenodd" d="M17.0882 3.05237C13.1894 -1.01746 6.82295 -1.01746 2.92412 3.05237C-0.974707 7.1222 -0.974707 13.7679 2.92412 17.8377C4.89821 19.8984 7.41518 20.8772 9.98149 20.8772C12.5478 20.8772 15.1141 19.8469 17.0389 17.8377C21.0364 13.7164 21.0364 7.1222 17.0882 3.05237ZM16.0518 16.7043C12.7452 20.156 7.31647 20.156 4.00987 16.7043C0.70327 13.2527 0.70327 7.58585 4.00987 4.13422C5.68785 2.38265 7.85935 1.50687 10.0308 1.50687C12.2023 1.50687 14.4232 2.38265 16.0518 4.13422C19.4078 7.58585 19.4078 13.2527 16.0518 16.7043ZM13.2387 7.07068C12.9426 6.76158 12.4985 6.76158 12.2023 7.07068L10.0308 9.33742L7.85935 7.07068C7.56323 6.76158 7.11906 6.76158 6.82295 7.07068C6.52684 7.37979 6.52684 7.84344 6.82295 8.15254L8.99445 10.4193L6.82295 12.686C6.52684 12.9951 6.52684 13.4588 6.82295 13.7679C6.97101 13.9224 7.16841 13.9739 7.36582 13.9739C7.56323 13.9739 7.76064 13.9224 7.9087 13.7679L10.0802 11.5011L12.2517 13.7679C12.3998 13.9224 12.5972 13.9739 12.7946 13.9739C12.992 13.9739 13.1894 13.9224 13.3374 13.7679C13.6336 13.4588 13.6336 12.9951 13.3374 12.686L11.1659 10.4193L13.3374 8.15254C13.5349 7.84344 13.5349 7.37979 13.2387 7.07068Z" fill="#1057A4"/>
</svg>
