<svg width="18" height="20" viewBox="0 0 18 20" fill="none" xmlns="http://www.w3.org/2000/svg">
<g clip-path="url(#clip0_638_8)">
<path d="M16.3688 20C16.7948 20 17.0955 19.6666 17.0955 19.1945V16.0834C17.0955 12.8889 14.6902 10.3333 11.8591 10.3333H10.9822C12.6608 9.44445 13.663 7.61111 13.663 5.44445C13.6881 2.47222 11.5083 0 8.72727 0C6.04645 0 3.79153 2.38889 3.79153 5.44445C3.79153 7.61111 4.94404 9.44445 6.47237 10.3333H5.52029C2.63903 10.3333 0.30896 12.9723 0.30896 16.0834V19.1945C0.30896 19.6666 0.609615 20 1.03554 20H16.3688ZM5.31986 5.44445C5.31986 3.36111 6.84818 1.61111 8.80243 1.61111C10.6815 1.61111 12.285 3.27777 12.285 5.44445C12.285 7.52777 10.7567 9.27778 8.80243 9.27778C6.92334 9.19445 5.31986 7.52777 5.31986 5.44445ZM1.91244 18.3889V16.1389H1.83728C1.83728 13.8055 3.59109 11.9722 5.62052 11.9722H11.9343C14.0388 11.9722 15.7175 13.8889 15.7175 16.1389V18.3889H1.91244Z" fill="white"/>
</g>
<defs>
<clipPath id="clip0_638_8">
<rect width="17.5" height="20" fill="white"/>
</clipPath>
</defs>
</svg>
