<?xml version="1.0" encoding="utf-8"?>
<!-- Generator: Adobe Illustrator 28.0.0, SVG Export Plug-In . SVG Version: 6.00 Build 0)  -->
<svg version="1.1" id="Layer_1" xmlns="http://www.w3.org/2000/svg" xmlns:xlink="http://www.w3.org/1999/xlink" x="0px" y="0px"
	 viewBox="0 0 72 59" style="enable-background:new 0 0 72 59;" xml:space="preserve">
<style type="text/css">
	.st0{fill:url(#SVGID_1_);}
	.st1{fill:#FFFFFF;}
</style>
<linearGradient id="SVGID_1_" gradientUnits="userSpaceOnUse" x1="0" y1="29.9646" x2="72" y2="29.9646" gradientTransform="matrix(1 0 0 -1 0 59.4646)">
	<stop  offset="0" style="stop-color:#FF3C00"/>
	<stop  offset="1" style="stop-color:#D54B17"/>
</linearGradient>
<path class="st0" d="M5,0h62c2.8,0,5,2.2,5,5v49c0,2.8-2.2,5-5,5H5c-2.8,0-5-2.2-5-5V5C0,2.2,2.2,0,5,0z"/>
<g>
	<path class="st1" d="M24.7,44.2c2.8,0.9,5.7,1.3,8.6,1.3c6.1,0,13.2-1.6,13.2-6.2c0-5.4-3.3-10.3-8.3-12.2c3.2-2.6,3.7-7.5,1-10.7
		c-2.7-3.2-7.5-3.7-10.7-1s-3.7,7.5-1,10.7c0.3,0.4,0.6,0.7,1,1c-5,2-8.3,6.8-8.3,12.3C20.1,40.8,20.9,42.9,24.7,44.2z M28.3,21.2
		c0-2.7,2.2-4.9,4.9-4.9s4.9,2.2,4.9,4.9s-2.2,4.9-4.9,4.9S28.3,23.9,28.3,21.2z M33.3,28.8c5.8,0,10.5,4.7,10.5,10.5
		c0,1.9-4.7,3.6-10.5,3.6s-10.5-1.6-10.5-3.6C22.8,33.5,27.5,28.8,33.3,28.8z"/>
	<path class="st1" d="M43.9,26.2h2v2c0,0.7,0.6,1.3,1.3,1.3s1.3-0.6,1.3-1.3v-2h2c0.7,0,1.3-0.6,1.3-1.3c0-0.7-0.6-1.3-1.3-1.3h-2
		v-2c0-0.7-0.6-1.3-1.3-1.3s-1.3,0.6-1.3,1.3v2h-2c-0.7,0-1.3,0.6-1.3,1.3C42.5,25.6,43.2,26.2,43.9,26.2z"/>
</g>
</svg>
