<svg width="72" height="59" viewBox="0 0 72 59" fill="none" xmlns="http://www.w3.org/2000/svg">
<rect width="72" height="59" rx="5" fill="url(#paint0_linear_681_25)"/>
<g clip-path="url(#clip0_681_25)">
<path d="M47.5375 45H24.4625C23.65 45 23 44.488 23 43.848V33.736C23 31.304 25.6 29.256 28.6875 29.256H31.9375V28.616C30.3125 27.848 29.175 26.568 28.6875 25.16C28.525 25.032 28.2 24.904 28.0375 24.776C27.225 24.392 26.7375 23.752 26.7375 22.984C26.575 22.344 26.7375 21.832 27.225 21.32C27.225 21.32 27.225 21.32 27.225 21.192V21.064C26.0875 18.632 27.55 15.944 30.475 14.92C31.775 13.768 33.8875 13 36 13C37.1375 13 38.1125 13.128 39.25 13.512H41.3625L40.0625 13.768C40.3875 14.024 40.875 14.28 41.2 14.664C41.525 14.792 41.85 14.792 42.175 14.92C43.6375 15.56 44.6125 16.584 45.1 17.736C45.5875 18.888 45.425 20.04 44.775 21.064H44.9375L44.775 21.192C44.9375 21.32 44.9375 21.576 45.1 21.704C45.425 22.472 45.2625 23.112 44.775 23.752C44.45 24.264 43.8 24.776 42.9875 25.032C42.5 26.44 41.3625 27.72 39.7375 28.488V29.128H42.9875C46.075 29.128 48.675 31.176 48.675 33.608V43.72C49 44.488 48.35 45 47.5375 45ZM27.7125 30.92C26.0875 31.304 24.95 32.328 24.95 33.736V43.592H27.7125V30.92ZM44.2875 43.464H47.05V33.608C47.05 32.328 45.9125 31.176 44.2875 30.792V43.464ZM29.6625 43.464H42.3375V30.792H41.85V33.352C41.85 34.504 40.7125 35.4 39.25 35.4H32.75C31.2875 35.4 30.15 34.504 30.15 33.352V30.792H29.6625V43.464ZM32.2625 30.792V33.352C32.2625 33.608 32.5875 33.864 32.9125 33.864H39.4125C39.7375 33.864 40.0625 33.608 40.0625 33.352V30.792H32.2625ZM34.05 29.768H37.95V29.384C36.65 29.64 35.1875 29.64 34.05 29.384V29.768ZM30.475 20.936V23.752C30.475 26.056 32.9125 27.976 35.8375 27.976C37.3 27.976 38.6 27.592 39.7375 26.824C40.7125 26.056 41.3625 25.032 41.3625 23.88V20.68C40.875 20.552 40.3875 20.296 40.225 19.912C37.625 21.448 34.2125 21.704 31.45 20.552C31.125 20.68 30.8 20.808 30.475 20.936ZM36 14.536C34.375 14.536 32.75 15.176 31.775 16.072L31.6125 16.2H31.45C30.9625 16.456 30.475 16.712 29.9875 16.968C28.85 17.736 28.3625 18.888 28.6875 20.04C29.0125 19.656 29.5 19.4 29.9875 19.4C29.9875 19.272 30.15 19.272 30.15 19.144C30.475 18.632 31.45 18.504 31.9375 18.888C34.375 20.168 37.4625 19.912 39.575 18.504C39.7375 18.376 39.9 18.248 40.225 18.248C40.875 18.12 41.6875 18.504 41.85 19.016C41.85 19.144 42.0125 19.272 42.3375 19.272C42.825 19.272 43.15 19.528 43.3125 19.784C43.8 18.12 42.5 16.456 40.3875 15.944H40.225L40.0625 15.816C39.0875 15.048 37.625 14.536 36 14.536Z" fill="white"/>
</g>
<defs>
<linearGradient id="paint0_linear_681_25" x1="-5.06393e-08" y1="28.9636" x2="72" y2="28.9636" gradientUnits="userSpaceOnUse">
<stop stop-color="#FF3C00"/>
<stop offset="1" stop-color="#D54B17"/>
</linearGradient>
<clipPath id="clip0_681_25">
<rect width="26" height="32" fill="white" transform="translate(23 13)"/>
</clipPath>
</defs>
</svg>
