<svg width="72" height="59" viewBox="0 0 72 59" fill="none" xmlns="http://www.w3.org/2000/svg">
<rect width="72" height="59" rx="5" fill="url(#paint0_linear_696_48)"/>
<g clip-path="url(#clip0_696_48)">
<path d="M47.9289 13H24.6652C23.7456 13 23 13.7456 23 14.6652V43.341C23 44.2544 23.7456 45 24.6652 45H47.9289C48.8485 45 49.5942 44.2544 49.5942 43.341V14.6652C49.5942 13.7456 48.8485 13 47.9289 13ZM47.6804 14.9076V43.08H24.9076V14.9076H47.6804Z" fill="white"/>
<path d="M27.9585 30.4167H44.6358C45.1639 30.4167 45.5927 29.988 45.5927 29.4598C45.5927 28.9317 45.1639 28.5029 44.6358 28.5029H27.9585C27.4303 28.5029 27.0016 28.9317 27.0016 29.4598C27.0016 29.988 27.4303 30.4167 27.9585 30.4167Z" fill="white"/>
<path d="M27.9585 34.1076H44.6358C45.1639 34.1076 45.5927 33.6789 45.5927 33.1507C45.5927 32.6226 45.1639 32.1938 44.6358 32.1938H27.9585C27.4303 32.1938 27.0016 32.6226 27.0016 33.1507C27.0016 33.6789 27.4303 34.1076 27.9585 34.1076Z" fill="white"/>
<path d="M27.9585 37.7922H44.6358C45.1639 37.7922 45.5927 37.3635 45.5927 36.8353C45.5927 36.3072 45.1639 35.8784 44.6358 35.8784H27.9585C27.4303 35.8784 27.0016 36.3072 27.0016 36.8353C27.0016 37.3635 27.4303 37.7922 27.9585 37.7922Z" fill="white"/>
<path d="M27.9585 41.4893H44.6358C45.1639 41.4893 45.5927 41.0606 45.5927 40.5325C45.5927 40.0043 45.1639 39.5756 44.6358 39.5756H27.9585C27.4303 39.5756 27.0016 40.0043 27.0016 40.5325C27.0016 41.0606 27.4303 41.4893 27.9585 41.4893Z" fill="white"/>
<path d="M36.2971 26.1418C37.4901 26.1418 38.6148 25.6757 39.4661 24.8307C40.3111 23.9856 40.7771 22.861 40.7771 21.6618C40.7771 20.4625 40.3111 19.3379 39.4661 18.4928C38.621 17.6478 37.4964 17.1818 36.2971 17.1818C35.0979 17.1818 33.9733 17.6478 33.1282 18.4928C32.2832 19.3379 31.8171 20.4625 31.8171 21.6618C31.8171 22.861 32.2832 23.9856 33.1282 24.8307C33.9733 25.6757 35.0979 26.1418 36.2971 26.1418ZM33.0971 21.6555C33.0971 19.8909 34.5325 18.4555 36.2971 18.4555C38.0618 18.4555 39.4971 19.8909 39.4971 21.6555C39.4971 23.4202 38.0618 24.8555 36.2971 24.8555C34.5325 24.8555 33.0971 23.4202 33.0971 21.6555Z" fill="white"/>
<path d="M36.2971 21.0031C35.9429 21.0031 35.6509 21.2889 35.6509 21.6493V23.6998C35.6509 24.0539 35.9367 24.346 36.2971 24.346C36.6575 24.346 36.9309 24.0601 36.9433 23.6998V21.6493C36.9433 21.2951 36.6575 21.0031 36.2971 21.0031Z" fill="white"/>
<path d="M36.2909 20.7484C36.645 20.7484 36.9371 20.4625 36.9371 20.1021C36.9371 19.7418 36.6513 19.4559 36.2909 19.4559C35.9305 19.4559 35.6447 19.7418 35.6447 20.1021C35.6447 20.4625 35.9305 20.7484 36.2909 20.7484Z" fill="white"/>
</g>
<defs>
<linearGradient id="paint0_linear_696_48" x1="-5.06393e-08" y1="28.9636" x2="72" y2="28.9636" gradientUnits="userSpaceOnUse">
<stop stop-color="#FF3C00"/>
<stop offset="1" stop-color="#D54B17"/>
</linearGradient>
<clipPath id="clip0_696_48">
<rect width="26.588" height="32" fill="white" transform="translate(23 13)"/>
</clipPath>
</defs>
</svg>
