<?xml version="1.0" encoding="utf-8"?>
<!-- Generator: Adobe Illustrator 28.1.0, SVG Export Plug-In . SVG Version: 6.00 Build 0)  -->
<svg version="1.1" id="Capa_1" xmlns="http://www.w3.org/2000/svg" xmlns:xlink="http://www.w3.org/1999/xlink" x="0px" y="0px"
	 viewBox="0 0 48 48" style="enable-background:new 0 0 48 48;" xml:space="preserve">
<g>
	<path d="M47.9,23.4l-1.5-3.8v-4.1c0-0.4-0.2-0.9-0.5-1.2l-2.9-2.9l-1.6-3.8c-0.2-0.4-0.5-0.7-0.9-0.9l-3.8-1.6l-2.9-2.9
		c-0.3-0.3-0.7-0.5-1.2-0.5h-4.1l-3.8-1.6c-0.4-0.2-0.9-0.2-1.3,0l-3.8,1.6h-4.1c-0.4,0-0.9,0.2-1.2,0.5l-2.9,2.9L7.6,6.7
		C7.2,6.8,6.9,7.2,6.7,7.6l-1.6,3.8l-2.9,2.9c-0.3,0.3-0.5,0.7-0.5,1.2v4.1l-1.6,3.8c-0.2,0.4-0.2,0.9,0,1.3l1.6,3.8v4.1
		c0,0.4,0.2,0.9,0.5,1.2l2.9,2.9l1.6,3.8c0.2,0.4,0.5,0.7,0.9,0.9l3.8,1.6l2.9,2.9c0.3,0.3,0.7,0.5,1.2,0.5h4.1l3.8,1.6
		C23.6,48,23.8,48,24,48c0.2,0,0.4,0,0.6-0.1l3.8-1.6h4.1c0.4,0,0.9-0.2,1.2-0.5l2.9-2.9l3.8-1.6c0.4-0.2,0.7-0.5,0.9-0.9l1.6-3.8
		l2.9-2.9c0.3-0.3,0.5-0.7,0.5-1.2v-4.1l1.6-3.8C48,24.2,48,23.8,47.9,23.4z M5,27.5L3.5,24L5,20.5c0.1-0.2,0.1-0.4,0.1-0.6v-3.7
		l2.7-2.7C7.9,13.4,8,13.2,8.1,13l1.4-3.5L13,8.1c0.2-0.1,0.4-0.2,0.5-0.4l2.6-2.6h3.7c0.2,0,0.4,0,0.6-0.1L24,3.5l3.5,1.4
		c0.2,0.1,0.4,0.1,0.6,0.1h3.7l2.6,2.6c0.2,0.2,0.3,0.3,0.5,0.4l3.5,1.4L40,13c0.1,0.2,0.2,0.4,0.4,0.5l2.6,2.6v3.7
		c0,0.2,0,0.4,0.1,0.6l1.4,3.5l-1.4,3.5l0,0C43,27.7,43,27.9,43,28.1v3.7l-2.7,2.7C40.2,34.6,40,34.8,40,35l-1.4,3.5l-3.4,1.4
		c-0.2,0.1-0.4,0.2-0.5,0.4l-2.6,2.6h-3.7c-0.2,0-0.4,0-0.6,0.1L24,44.5l-3.5-1.4c-0.2-0.1-0.4-0.1-0.6-0.1h-3.7l-2.6-2.6
		c-0.2-0.2-0.3-0.3-0.5-0.4l-3.5-1.4L8.1,35c-0.1-0.2-0.2-0.4-0.4-0.5l-2.6-2.6v-3.7C5.1,27.9,5,27.7,5,27.5z"/>
	<path d="M17.7,23.8c1.6,0,3.2-0.6,4.4-1.8c2.4-2.4,2.4-6.3,0-8.7c-1.2-1.2-2.7-1.8-4.4-1.8c-1.6,0-3.2,0.6-4.4,1.8
		c-1.2,1.2-1.8,2.7-1.8,4.4s0.6,3.2,1.8,4.4C14.5,23.2,16,23.8,17.7,23.8z M15.7,15.6c0.5-0.5,1.2-0.8,2-0.8s1.5,0.3,2,0.8
		c1.1,1.1,1.1,2.9,0,4c-1.1,1.1-2.9,1.1-4,0C14.6,18.5,14.6,16.7,15.7,15.6z"/>
	<path d="M30.4,24.2c-1.7,0-3.2,0.6-4.4,1.8c-2.4,2.4-2.4,6.3,0,8.7c1.2,1.2,2.7,1.8,4.4,1.8c1.6,0,3.2-0.6,4.4-1.8
		c2.4-2.4,2.4-6.3,0-8.7C33.6,24.8,32.1,24.2,30.4,24.2z M32.4,32.4c-1.1,1.1-2.9,1.1-4,0c-1.1-1.1-1.1-2.9,0-4
		c0.5-0.5,1.3-0.8,2-0.8c0.8,0,1.5,0.3,2,0.8C33.5,29.5,33.5,31.3,32.4,32.4z"/>
	<path d="M13.3,34.7c0.3,0.3,0.7,0.5,1.2,0.5c0.4,0,0.9-0.2,1.2-0.5l19.1-19.1c0.6-0.7,0.6-1.7,0-2.4c-0.6-0.6-1.7-0.6-2.4,0
		L13.3,32.4C12.6,33,12.6,34.1,13.3,34.7z"/>
</g>
</svg>
