<?xml version="1.0" encoding="UTF-8"?>
<svg id="Capa_1" data-name="Capa 1" xmlns="http://www.w3.org/2000/svg" version="1.1" viewBox="0 0 27 28">
  <defs>
    <style>
      .cls-1 {
        fill: #39b54a;
      }

      .cls-1, .cls-2 {
        stroke-width: 0px;
      }

      .cls-2 {
        fill: #fff;
      }
    </style>
  </defs>
  <path class="cls-1" d="M5,0h17c2.8,0,5,2.3,5,5.2v17.6c0,2.9-2.2,5.2-5,5.2H5c-2.8,0-5-2.3-5-5.2V5.2C0,2.3,2.2,0,5,0Z"/>
  <g>
    <path class="cls-2" d="M4.5,18.5c0,.9.4,1.8,1,2.5.7.7,1.5,1,2.5,1h9.7c.9,0,1.8-.4,2.5-1,.7-.7,1-1.5,1-2.5v-3.7c0-.5-.4-.9-.9-.9s-.9.4-.9.9v3.7c0,1-.8,1.8-1.8,1.8H8c-.5,0-.9-.2-1.3-.5-.3-.3-.5-.8-.5-1.3v-9.7c0-1,.8-1.8,1.8-1.8h3.7c.5,0,.9-.4.9-.9s-.4-.9-.9-.9h-3.7c-.9,0-1.8.4-2.5,1-.7.7-1,1.5-1,2.5v9.7Z"/>
    <path class="cls-2" d="M21.6,4.9c-.6-.6-1.4-1-2.3-1s-1.7.3-2.3,1l-8.1,8.1c-.3.3-.5.7-.6,1.2l-.3,1.8c-.1.7.1,1.4.6,1.9.5.5,1.2.7,1.9.6l1.8-.3c.5,0,.9-.3,1.2-.6l8.1-8.1c.6-.6,1-1.4,1-2.3s-.3-1.7-1-2.3h0ZM12.2,16.4c0,0-.2.1-.3.1h0l-1.8.3h0c-.2,0-.3,0-.4-.1-.1-.1-.2-.3-.1-.4l.3-1.8h0c0-.1,0-.2.1-.3l5.8-5.8,2.2,2.2-5.8,5.8ZM20.4,8.3l-1.1,1.1-2.2-2.2,1.1-1.1c.3-.3.7-.5,1.1-.5s.8.2,1.1.5c.3.3.5.7.5,1.1s-.2.8-.5,1.1h0Z"/>
  </g>
</svg>