<svg width="17" height="20" viewBox="0 0 17 20" fill="none" xmlns="http://www.w3.org/2000/svg">
<path d="M13.3333 12.6667C13.2456 12.6672 13.1586 12.6504 13.0774 12.6172C12.9961 12.584 12.9223 12.5351 12.86 12.4734C12.7975 12.4114 12.7479 12.3376 12.7141 12.2564C12.6802 12.1752 12.6628 12.088 12.6628 12C12.6628 11.912 12.6802 11.8249 12.7141 11.7436C12.7479 11.6624 12.7975 11.5887 12.86 11.5267L14.3933 10L12.8666 8.47336C12.7411 8.34782 12.6706 8.17756 12.6706 8.00002C12.6706 7.82249 12.7411 7.65222 12.8666 7.52669C12.9922 7.40115 13.1624 7.33063 13.34 7.33063C13.5175 7.33063 13.6878 7.40115 13.8133 7.52669L15.8133 9.52669C15.8758 9.58866 15.9254 9.6624 15.9592 9.74364C15.9931 9.82488 16.0105 9.91201 16.0105 10C16.0105 10.088 15.9931 10.1752 15.9592 10.2564C15.9254 10.3376 15.8758 10.4114 15.8133 10.4734L13.8133 12.4734C13.7502 12.5359 13.6753 12.5853 13.5928 12.6185C13.5104 12.6517 13.4222 12.6681 13.3333 12.6667Z" fill="white"/>
<path d="M15.3333 10.6666H4.66667C4.48986 10.6666 4.32029 10.5964 4.19526 10.4714C4.07024 10.3464 4 10.1768 4 9.99998C4 9.82317 4.07024 9.6536 4.19526 9.52858C4.32029 9.40355 4.48986 9.33331 4.66667 9.33331H15.3333C15.5101 9.33331 15.6797 9.40355 15.8047 9.52858C15.9298 9.6536 16 9.82317 16 9.99998C16 10.1768 15.9298 10.3464 15.8047 10.4714C15.6797 10.5964 15.5101 10.6666 15.3333 10.6666Z" fill="white"/>
<path d="M11.3333 20H0.666667C0.489856 20 0.320287 19.9298 0.195262 19.8047C0.070238 19.6797 0 19.5101 0 19.3333V0.666667C0 0.489856 0.070238 0.320286 0.195262 0.195262C0.320287 0.0702379 0.489856 0 0.666667 0H11.3333C11.5101 0 11.6797 0.0702379 11.8047 0.195262C11.9298 0.320286 12 0.489856 12 0.666667V6C12 6.17681 11.9298 6.34638 11.8047 6.4714C11.6797 6.59643 11.5101 6.66667 11.3333 6.66667C11.1565 6.66667 10.987 6.59643 10.8619 6.4714C10.7369 6.34638 10.6667 6.17681 10.6667 6V1.33333H1.33333V18.6667H10.6667V14C10.6667 13.8232 10.7369 13.6536 10.8619 13.5286C10.987 13.4036 11.1565 13.3333 11.3333 13.3333C11.5101 13.3333 11.6797 13.4036 11.8047 13.5286C11.9298 13.6536 12 13.8232 12 14V19.3333C12 19.5101 11.9298 19.6797 11.8047 19.8047C11.6797 19.9298 11.5101 20 11.3333 20Z" fill="white"/>
</svg>
