<?xml version="1.0" encoding="utf-8"?>
<!-- Generator: Adobe Illustrator 28.0.0, SVG Export Plug-In . SVG Version: 6.00 Build 0)  -->
<svg version="1.1" id="Layer_1" xmlns="http://www.w3.org/2000/svg" xmlns:xlink="http://www.w3.org/1999/xlink" x="0px" y="0px"
	 viewBox="0 0 100 100" style="enable-background:new 0 0 100 100;" xml:space="preserve">
<style type="text/css">
	.st0{fill:#FFFFFF;}
</style>
<g>
	<g>
		<path class="st0" d="M50,0C22.4,0,0,22.4,0,50s22.4,50,50,50s50-22.4,50-50S77.6,0,50,0z M50,93.7C25.9,93.7,6.3,74.1,6.3,50
			S25.9,6.3,50,6.3S93.7,25.9,93.7,50S74.1,93.7,50,93.7z M62.8,50.6c-2-1.8-5-3.1-9.1-4V32.9c1.1,0.2,2,0.6,2.8,1.1
			c1.4,0.8,2.5,1.8,3.5,3.2c0.3,0.5,0.8,0.8,1.4,0.9c0.6,0.1,1.1-0.1,1.6-0.4l2-1.5c0.9-0.7,1.1-1.9,0.5-2.9c-1.4-2.1-3.3-3.8-5.5-5
			c-1.8-1-3.8-1.7-6.2-2v-3.2c0-1.2-0.9-2.1-2.1-2.1h-2.1c-1.2,0-2.1,0.9-2.1,2.1v3.2c-3.4,0.4-6.3,1.4-8.5,3.2
			c-2.9,2.2-4.4,5.4-4.4,9.5c0,3.9,1.3,6.9,3.8,9c2,1.7,5,3.1,9.1,4.1v15.1c-1.5-0.3-2.7-0.8-3.8-1.4c-1.7-1-3.2-2.4-4.5-4.1
			c-0.3-0.4-0.9-0.7-1.4-0.8c-0.6-0.1-1.1,0.1-1.6,0.5l-2,1.6c-0.9,0.7-1,2-0.3,2.9c1.7,2.2,3.8,4.1,6.2,5.6c2,1.2,4.5,2,7.4,2.3
			v3.2c0,1.2,0.9,2.1,2.1,2.1h2.1c1.2,0,2.1-0.9,2.1-2.1v-3.2c3.4-0.5,6.3-1.7,8.5-3.7c2.8-2.4,4.1-5.8,4.1-10.1
			C66.5,55.9,65.3,52.8,62.8,50.6z M47.5,45.2c-1.2-0.3-2.2-0.7-3-1.1c-1.1-0.5-1.9-1.2-2.4-2c-0.5-0.8-0.7-1.9-0.7-3.3
			c0-2,0.6-3.4,1.9-4.4c1.1-0.8,2.5-1.3,4.2-1.6C47.5,32.8,47.5,45.2,47.5,45.2z M57.8,65.2c-1,0.9-2.4,1.5-4,1.9V53.3
			c2.4,0.7,3.7,1.4,4.3,2c1.1,1,1.7,2.5,1.7,4.7C59.8,62.3,59.1,64,57.8,65.2z"/>
	</g>
</g>
</svg>
