<svg width="19" height="20" viewBox="0 0 19 20" fill="none" xmlns="http://www.w3.org/2000/svg">
<g clip-path="url(#clip0_610_5430)">
<path d="M17.0399 6.24V3.76C17.0399 3.4 16.7599 3.12 16.3999 3.12H15.0799V0.64C15.0799 0.28 14.7999 0 14.4399 0H5.23989C4.87989 0 4.59989 0.28 4.59989 0.64V3.12H3.23989C2.87989 3.12 2.59989 3.4 2.59989 3.76V6.24C1.51989 6.24 0.639893 7.08 0.639893 8.12V14.36C0.639893 15.4 1.51989 16.24 2.59989 16.24H4.55989V19.36C4.55989 19.72 4.83989 20 5.19989 20H14.3999C14.7599 20 15.0399 19.72 15.0399 19.36V16.24H16.9999C18.0799 16.24 18.9599 15.4 18.9599 14.36V8.12C18.9999 7.08 18.1199 6.24 17.0399 6.24ZM15.7199 4.36V6.24H15.0799V4.36H15.7199ZM5.83989 1.24H13.7199V6.24H5.83989V1.24ZM3.87989 4.36H4.51989V6.24H3.87989V4.36ZM13.7599 18.76H5.83989V15.64V13.76H13.7199V15.64V18.76H13.7599ZM17.6799 14.36C17.6799 14.72 17.3999 15 17.0399 15H15.0799V13.76H15.7199C16.0799 13.76 16.3599 13.48 16.3599 13.12C16.3599 12.76 16.0799 12.48 15.7199 12.48H14.3999H5.19989H3.87989C3.51989 12.48 3.23989 12.76 3.23989 13.12C3.23989 13.48 3.51989 13.76 3.87989 13.76H4.51989V15H2.55989C2.19989 15 1.91989 14.72 1.91989 14.36V8.12C1.91989 7.76 2.19989 7.48 2.55989 7.48H5.19989H14.3999H17.0399C17.3999 7.48 17.6799 7.76 17.6799 8.12V14.36Z" fill="white"/>
<path d="M3.43999 9.56C3.31999 9.68 3.23999 9.84001 3.23999 10C3.23999 10.16 3.31999 10.32 3.43999 10.44C3.55999 10.56 3.71999 10.64 3.91999 10.64C4.07999 10.64 4.27999 10.56 4.39999 10.44C4.51999 10.32 4.59999 10.16 4.59999 10C4.59999 9.84001 4.51999 9.68 4.39999 9.56C4.11999 9.32 3.67999 9.32 3.43999 9.56Z" fill="white"/>
<path d="M5.39995 9.56C5.27995 9.68 5.19995 9.84001 5.19995 10C5.19995 10.16 5.27995 10.32 5.39995 10.44C5.51995 10.56 5.67995 10.64 5.87995 10.64C6.03995 10.64 6.23995 10.56 6.35995 10.44C6.47995 10.32 6.55995 10.16 6.55995 10C6.55995 9.84001 6.47995 9.68 6.35995 9.56C6.07995 9.32 5.63995 9.32 5.39995 9.56Z" fill="white"/>
<path d="M15.2398 9.56C15.1198 9.68 15.0398 9.84001 15.0398 10C15.0398 10.16 15.1198 10.32 15.2398 10.44C15.3598 10.56 15.5198 10.64 15.7198 10.64C15.9198 10.64 16.0798 10.56 16.1998 10.44C16.3198 10.32 16.3998 10.16 16.3998 10C16.3998 9.84001 16.3198 9.68 16.1998 9.56C15.9198 9.32 15.4798 9.32 15.2398 9.56Z" fill="white"/>
</g>
<defs>
<clipPath id="clip0_610_5430">
<rect width="18.4" height="20" fill="white" transform="translate(0.599854)"/>
</clipPath>
</defs>
</svg>
