<svg width="20" height="20" viewBox="0 0 20 20" fill="none" xmlns="http://www.w3.org/2000/svg">
<path d="M10.9951 7.23617L10.995 7.23617V7.24163C10.995 7.35872 10.9583 7.43565 10.914 7.48171C10.8705 7.5269 10.8012 7.56184 10.6965 7.56184C10.5917 7.56184 10.5224 7.5269 10.4789 7.48171C10.4346 7.43565 10.3979 7.35872 10.3979 7.24163C10.3979 5.29093 8.87154 3.62741 6.91157 3.62741C6.8068 3.62741 6.73752 3.59247 6.69405 3.54729C6.64974 3.50123 6.61304 3.4243 6.61304 3.30721C6.61304 3.19012 6.64974 3.11318 6.69405 3.06713C6.73752 3.02194 6.8068 2.987 6.91157 2.987C9.18298 2.987 11.0469 4.86549 10.9951 7.23617Z" fill="#1057A4" stroke="#1057A4" stroke-width="0.5"/>
<path d="M14.4657 13.4591L18.6346 17.7927C18.8331 17.9991 18.9373 18.2802 18.9489 18.5633C18.9605 18.8455 18.8793 19.1057 18.7381 19.2772L18.5797 19.4418C18.1844 19.8527 17.5252 19.8527 17.1299 19.4418L12.961 15.1082C12.8347 14.9769 12.8347 14.7308 12.961 14.5996C13.0848 14.4709 13.0848 14.2675 12.961 14.1389L12.2393 13.3886C11.7157 12.8444 10.8878 12.8312 10.2838 13.2035C9.28417 13.8196 8.12807 14.1762 6.91154 14.1762C3.27249 14.1762 0.25 11.1029 0.25 7.24163C0.25 3.43344 3.27626 0.25 6.91154 0.25C10.5506 0.25 13.5731 3.32332 13.5731 7.18461C13.5731 8.48931 13.2095 9.72609 12.5859 10.7862C12.246 11.3642 12.2599 12.1355 12.7523 12.6474L13.5332 13.4591C13.6615 13.5925 13.8749 13.5925 14.0032 13.4591C14.1243 13.3333 14.3446 13.3333 14.4657 13.4591ZM1.12134 7.29865C1.12134 10.562 3.69106 13.3077 6.91154 13.3077C10.1336 13.3077 12.7017 10.5604 12.7017 7.24163C12.7017 3.91962 10.1304 1.23254 6.91154 1.23254C3.68796 1.23254 1.12134 4.03856 1.12134 7.29865Z" fill="#1057A4" stroke="#1057A4" stroke-width="0.5"/>
</svg>
