<?xml version="1.0" encoding="UTF-8"?>
<svg id="Capa_1" data-name="Capa 1" xmlns="http://www.w3.org/2000/svg" version="1.1" viewBox="0 0 27 28">
  <defs>
    <style>
      .cls-1 {
        fill: #f04a0c;
      }

      .cls-1, .cls-2 {
        stroke-width: 0px;
      }

      .cls-2 {
        fill: #fff;
      }
    </style>
  </defs>
  <path class="cls-1" d="M5,0h17c2.8,0,5,2.3,5,5.2v17.6c0,2.9-2.2,5.2-5,5.2H5c-2.8,0-5-2.3-5-5.2V5.2C0,2.3,2.2,0,5,0Z"/>
  <g>
    <path class="cls-2" d="M17.3,8.2h-2c0-.7-.6-1.3-1.3-1.3h-1.1c-.7,0-1.3.6-1.3,1.3h0c0,0-2,0-2,0-.9,0-1.6.7-1.6,1.6v.7c0,.4.3.7.6.9v8.2c0,.9.7,1.6,1.6,1.6h6.6c.9,0,1.6-.7,1.6-1.6v-8.3c.3-.1.5-.4.5-.7v-.7c0-.9-.7-1.6-1.6-1.6ZM17.4,11.4v8.2c0,.3-.3.6-.6.6h-6.6c-.3,0-.6-.3-.6-.6v-8.2h7.7ZM12.7,8.2c0-.2.1-.3.2-.3h1.2c.1,0,.2.1.2.2h0c0,0-1.7,0-1.7,0ZM17.9,9.8v.6h-8.8v-.6c0-.3.3-.6.6-.6h7.7c.3,0,.6.2.6.6Z"/>
    <path class="cls-2" d="M12,18.9c.3,0,.5-.2.5-.5v-5.9c0-.3-.2-.5-.5-.5s-.5.2-.5.5v5.9c0,.3.2.5.5.5Z"/>
    <path class="cls-2" d="M15,18.9c.3,0,.5-.2.5-.5v-5.9c0-.3-.2-.5-.5-.5s-.5.2-.5.5v5.9c0,.3.2.5.5.5Z"/>
  </g>
</svg>